<svg width="216" height="196" viewBox="0 0 216 196" fill="none" xmlns="http://www.w3.org/2000/svg">
<rect width="216" height="196" rx="15" fill="#EEEEEE"/>
<path d="M108.208 35.5591C99.0766 35.5591 91.646 42.9896 91.646 52.1216C91.646 56.7223 93.4863 60.9931 96.8196 64.1528L96.9932 64.3264L97.1842 64.1528C97.6703 63.7014 98.1738 63.3021 98.6946 62.9202C101.229 65.1598 104.563 66.5313 108.208 66.5313C111.854 66.5313 115.188 65.1598 117.722 62.9202C118.243 63.3021 118.747 63.7014 119.233 64.1528L119.424 64.3264L119.597 64.1528C122.948 60.9931 124.788 56.7049 124.788 52.1216C124.771 42.9896 117.34 35.5591 108.208 35.5591Z" fill="white"/>
<path d="M108.208 35.5591C99.0766 35.5591 91.646 42.9896 91.646 52.1216C91.646 56.7223 93.4863 60.9931 96.8196 64.1528L96.9932 64.3264L97.1842 64.1528C97.6703 63.7014 98.1738 63.3021 98.6946 62.9202C101.229 65.1598 104.563 66.5313 108.208 66.5313C111.854 66.5313 115.188 65.1598 117.722 62.9202C118.243 63.3021 118.747 63.7014 119.233 64.1528L119.424 64.3264L119.597 64.1528C122.948 60.9931 124.788 56.7049 124.788 52.1216C124.771 42.9896 117.34 35.5591 108.208 35.5591ZM108.208 65.9931C104.736 65.9931 101.577 64.7084 99.146 62.6077C100.813 61.4966 102.67 60.698 104.615 60.2639L103.556 61.6355C103.434 61.7917 103.399 62.0174 103.504 62.2084C103.59 62.3994 103.781 62.5035 103.99 62.5035H112.393C112.601 62.5035 112.792 62.382 112.879 62.2084C112.965 62.0174 112.948 61.8091 112.827 61.6355L111.75 60.2466C113.729 60.6806 115.604 61.4792 117.288 62.6077C114.823 64.7257 111.663 65.9931 108.208 65.9931ZM94.3196 52.1216C94.3196 44.4653 100.535 38.2501 108.191 38.2501C115.847 38.2501 122.063 44.4653 122.063 52.1216C122.063 56.1146 120.361 59.7084 117.67 62.2431C115.726 60.9237 113.538 60.0209 111.229 59.5869H110.535V58.4063C110.535 57.8507 110.083 57.4167 109.545 57.4167H105.795V59.5869H105.101C102.809 60.0209 100.639 60.9237 98.712 62.2257C96.021 59.7084 94.3196 56.1146 94.3196 52.1216ZM110.014 59.5869H106.351V57.9376H109.563C109.823 57.9376 110.014 58.1459 110.014 58.3889V59.5869ZM110.014 60.1251V60.6632H106.351V60.1251H110.014ZM110.535 61.2014V60.1251H110.969L112.375 61.9653L103.972 61.948L105.379 60.1251H105.813V61.2014H110.535ZM119.389 63.5973C118.972 63.2327 118.556 62.8855 118.104 62.5556C120.865 59.9341 122.601 56.2188 122.601 52.1216C122.601 44.1702 116.143 37.7119 108.191 37.7119C100.24 37.7119 93.7814 44.1702 93.7814 52.1216C93.7814 56.2188 95.5002 59.9167 98.2606 62.5556C97.8092 62.8855 97.3925 63.2327 96.9759 63.5973C93.8682 60.5591 92.1495 56.4966 92.1495 52.1216C92.1495 43.2848 99.337 36.0799 108.191 36.0799C117.045 36.0799 124.233 43.2674 124.233 52.1216C124.233 56.4792 122.514 60.5417 119.389 63.5973Z" fill="#6A747C"/>
<path d="M104.059 42.8507C103.677 42.8507 103.365 43.1111 103.365 43.441C103.365 43.7709 103.677 44.0313 104.059 44.0313C104.441 44.0313 104.754 43.7709 104.754 43.441C104.754 43.1111 104.441 42.8507 104.059 42.8507ZM104.059 44.4306C103.451 44.4306 102.965 43.9966 102.965 43.441C102.965 42.8854 103.451 42.4514 104.059 42.4514C104.667 42.4514 105.153 42.8854 105.153 43.441C105.153 43.9966 104.667 44.4306 104.059 44.4306Z" fill="#E1251B"/>
<path d="M107.965 44.4306C107.739 44.4306 107.566 44.257 107.566 44.0313V43.2153C107.566 43.0243 107.392 42.8681 107.184 42.8681C106.975 42.8681 106.802 43.0243 106.802 43.2153V44.4306C106.576 44.4306 106.402 44.257 106.402 44.0313V43.1979C106.402 43.007 106.229 42.8507 106.021 42.8507C105.812 42.8507 105.639 43.007 105.639 43.1979V44.0139C105.639 44.2396 105.465 44.4132 105.239 44.4132V43.1979C105.239 42.7813 105.586 42.4514 106.021 42.4514C106.246 42.4514 106.455 42.5382 106.593 42.6945C106.732 42.5382 106.941 42.4514 107.166 42.4514C107.6 42.4514 107.948 42.7813 107.948 43.1979L107.965 44.4306Z" fill="#E1251B"/>
<path d="M109.25 44.4306C109.146 44.4306 109.041 44.4306 108.955 44.3959C108.746 44.3438 108.625 44.1181 108.677 43.9097C108.677 43.8924 108.694 43.8577 108.694 43.8403C108.798 43.9618 108.989 44.0313 109.232 44.0313C109.597 44.0313 109.875 43.7709 109.875 43.4584C109.875 43.1285 109.597 42.8507 109.232 42.8507C108.885 42.8507 108.538 43.0417 108.538 43.4584V44.7431C108.538 44.9514 108.364 45.125 108.139 45.125V43.4584C108.139 42.8854 108.59 42.4514 109.215 42.4514C109.493 42.4514 109.753 42.5556 109.944 42.7292C110.135 42.9202 110.257 43.1632 110.257 43.441C110.291 43.9966 109.84 44.4306 109.25 44.4306Z" fill="#E1251B"/>
<path d="M112.08 42.0869H111.229V44.4307H111.212C111.003 44.4307 110.83 44.2571 110.83 44.0314V42.0869H109.979C109.771 42.0869 109.597 41.9133 109.597 41.6876H112.479C112.462 41.9133 112.288 42.0869 112.08 42.0869Z" fill="#E1251B"/>
<path d="M114.597 42.1043L114.041 43.3369H115.1L114.527 42.0869L114.597 42.1043ZM115.465 44.1876L115.257 43.7362H113.85L113.642 44.205C113.538 44.3959 113.277 44.448 113.086 44.448L114.232 41.9307C114.302 41.7918 114.406 41.705 114.545 41.705C114.684 41.705 114.805 41.7918 114.857 41.9307L115.986 44.4133C115.795 44.4307 115.552 44.3612 115.465 44.1876Z" fill="#E1251B"/>
<path d="M102.514 42.4341C102.305 42.2084 101.993 42.0522 101.646 42.0522C101.038 42.0522 100.535 42.5036 100.535 43.0417C100.535 43.5973 101.038 44.0487 101.646 44.0487C101.941 44.0487 102.219 43.9445 102.427 43.7536C102.566 43.632 102.792 43.6494 102.93 43.7536C102.826 43.9272 102.67 44.0661 102.496 44.1702C102.236 44.3265 101.958 44.4133 101.646 44.4133C100.812 44.4133 100.135 43.7883 100.135 43.0244C100.135 42.2605 100.812 41.6355 101.646 41.6355C102.236 41.6355 102.774 41.9654 103.017 42.4515C102.861 42.5904 102.653 42.573 102.514 42.4341Z" fill="#E1251B"/>
<path d="M116.229 44.1008H116.212C116.212 44.1008 116.229 44.1182 116.264 44.1702C116.247 44.1876 116.229 44.1876 116.212 44.1702C116.16 44.1182 116.16 44.1181 116.16 44.1181H116.108V44.1008C116.108 44.0834 116.125 44.0661 116.142 44.0661H116.16C116.177 44.0661 116.194 44.0661 116.194 44.0661C116.194 44.0661 116.212 44.0661 116.212 44.0487C116.212 44.0487 116.212 44.0313 116.16 44.0313H116.09V44.1702C116.09 44.1876 116.073 44.205 116.056 44.205H116.038V44.0313C116.038 44.014 116.056 43.9966 116.073 43.9966H116.16C116.247 43.9966 116.264 44.0487 116.264 44.0661C116.264 44.0834 116.247 44.1008 116.229 44.1008ZM116.142 43.9445C116.056 43.9445 115.986 44.014 115.986 44.0834C115.986 44.1702 116.056 44.2223 116.142 44.2223C116.229 44.2223 116.316 44.1529 116.316 44.0834C116.316 44.014 116.247 43.9445 116.142 43.9445ZM116.142 44.2744C116.021 44.2744 115.934 44.1876 115.934 44.0834C115.934 43.9793 116.021 43.8925 116.142 43.8925C116.264 43.8925 116.351 43.9793 116.351 44.0834C116.351 44.1876 116.264 44.2744 116.142 44.2744Z" fill="#E1251B"/>
<path d="M112.601 41.6876V44.0487C112.601 44.2571 112.774 44.4307 113 44.4307V42.0696C112.983 41.8612 112.809 41.6876 112.601 41.6876Z" fill="#E1251B"/>
<path d="M125.274 46.2014H89.5278V54.8646C89.5278 55.6632 90.1876 56.3229 90.9862 56.3229H126.733V47.6597C126.715 46.8611 126.073 46.2014 125.274 46.2014Z" fill="#E1251B"/>
<path d="M119.458 63.198H119.441C119.441 63.198 119.458 63.2153 119.493 63.2674C119.476 63.2848 119.458 63.2848 119.441 63.2674C119.389 63.2153 119.389 63.2153 119.389 63.2153H119.337V63.198C119.337 63.1806 119.354 63.1632 119.371 63.1632H119.389C119.406 63.1632 119.424 63.1632 119.424 63.1632C119.424 63.1632 119.441 63.1632 119.441 63.1459C119.441 63.1459 119.441 63.1285 119.389 63.1285H119.319V63.2674C119.319 63.2848 119.302 63.3021 119.285 63.3021H119.267V63.1285C119.267 63.1112 119.285 63.0938 119.302 63.0938H119.389C119.476 63.0938 119.493 63.1459 119.493 63.1632C119.493 63.1806 119.476 63.198 119.458 63.198ZM119.371 63.0417C119.285 63.0417 119.215 63.1112 119.215 63.1806C119.215 63.2674 119.285 63.3195 119.371 63.3195C119.458 63.3195 119.545 63.25 119.545 63.1806C119.545 63.1112 119.458 63.0417 119.371 63.0417ZM119.371 63.3716C119.25 63.3716 119.163 63.2848 119.163 63.1806C119.163 63.0764 119.25 62.9896 119.371 62.9896C119.493 62.9896 119.58 63.0764 119.58 63.1806C119.58 63.2848 119.493 63.3716 119.371 63.3716Z" fill="#6A747C"/>
<path d="M101.75 48.875H102.583V53.5972H101.75V48.875Z" fill="white"/>
<path d="M104.58 49.6389H103.087V48.875H106.906V49.6389H105.413V53.5799H104.58V49.6389Z" fill="white"/>
<path d="M107.462 48.875H110.969V49.6215H108.295V50.9062H110.674V51.6528H108.295V53.5799H107.462V48.875Z" fill="white"/>
<path d="M112.566 51.6702H111.264V50.9236H112.566V49.6389H113.33V50.9236H114.632V51.6702H113.33V52.9549H112.566V51.6702Z" fill="white"/>
<path d="M67.798 117H66.2128C66.1191 116.544 65.955 116.143 65.7206 115.798C65.4905 115.453 65.2093 115.163 64.8769 114.929C64.5487 114.69 64.1844 114.511 63.7838 114.392C63.3833 114.273 62.9656 114.213 62.531 114.213C61.7384 114.213 61.0203 114.413 60.3769 114.814C59.7377 115.214 59.2284 115.805 58.8492 116.585C58.4742 117.364 58.2867 118.321 58.2867 119.455C58.2867 120.588 58.4742 121.545 58.8492 122.325C59.2284 123.104 59.7377 123.695 60.3769 124.095C61.0203 124.496 61.7384 124.696 62.531 124.696C62.9656 124.696 63.3833 124.636 63.7838 124.517C64.1844 124.398 64.5487 124.221 64.8769 123.987C65.2093 123.748 65.4905 123.456 65.7206 123.111C65.955 122.761 66.1191 122.361 66.2128 121.909H67.798C67.6787 122.578 67.4614 123.177 67.146 123.705C66.8307 124.234 66.4387 124.683 65.9699 125.054C65.5012 125.42 64.9749 125.7 64.3911 125.891C63.8115 126.083 63.1915 126.179 62.531 126.179C61.4145 126.179 60.4216 125.906 59.5523 125.361C58.683 124.815 57.999 124.04 57.5004 123.034C57.0019 122.028 56.7526 120.835 56.7526 119.455C56.7526 118.074 57.0019 116.881 57.5004 115.875C57.999 114.869 58.683 114.094 59.5523 113.548C60.4216 113.003 61.4145 112.73 62.531 112.73C63.1915 112.73 63.8115 112.826 64.3911 113.018C64.9749 113.21 65.5012 113.491 65.9699 113.862C66.4387 114.228 66.8307 114.675 67.146 115.204C67.4614 115.728 67.6787 116.327 67.798 117ZM74.1437 126.205C73.2574 126.205 72.4797 125.994 71.8106 125.572C71.1459 125.15 70.626 124.56 70.251 123.801C69.8802 123.043 69.6949 122.156 69.6949 121.142C69.6949 120.119 69.8802 119.227 70.251 118.464C70.626 117.701 71.1459 117.109 71.8106 116.687C72.4797 116.265 73.2574 116.054 74.1437 116.054C75.0301 116.054 75.8057 116.265 76.4704 116.687C77.1395 117.109 77.6594 117.701 78.0301 118.464C78.4051 119.227 78.5926 120.119 78.5926 121.142C78.5926 122.156 78.4051 123.043 78.0301 123.801C77.6594 124.56 77.1395 125.15 76.4704 125.572C75.8057 125.994 75.0301 126.205 74.1437 126.205ZM74.1437 124.849C74.817 124.849 75.371 124.677 75.8057 124.332C76.2403 123.987 76.5621 123.533 76.7709 122.97C76.9797 122.408 77.0841 121.798 77.0841 121.142C77.0841 120.486 76.9797 119.874 76.7709 119.308C76.5621 118.741 76.2403 118.283 75.8057 117.933C75.371 117.584 74.817 117.409 74.1437 117.409C73.4704 117.409 72.9165 117.584 72.4818 117.933C72.0471 118.283 71.7254 118.741 71.5166 119.308C71.3078 119.874 71.2034 120.486 71.2034 121.142C71.2034 121.798 71.3078 122.408 71.5166 122.97C71.7254 123.533 72.0471 123.987 72.4818 124.332C72.9165 124.677 73.4704 124.849 74.1437 124.849ZM80.8953 126V116.182H82.3527V117.716H82.4806C82.6851 117.192 83.0154 116.785 83.4713 116.495C83.9273 116.201 84.4749 116.054 85.1141 116.054C85.7618 116.054 86.3009 116.201 86.7313 116.495C87.1659 116.785 87.5047 117.192 87.7476 117.716H87.8499C88.1013 117.209 88.4784 116.806 88.9813 116.508C89.4841 116.205 90.0871 116.054 90.7902 116.054C91.6681 116.054 92.3861 116.329 92.9443 116.879C93.5026 117.424 93.7817 118.274 93.7817 119.429V126H92.2732V119.429C92.2732 118.705 92.075 118.187 91.6787 117.876C91.2824 117.565 90.8158 117.409 90.2789 117.409C89.5885 117.409 89.0537 117.618 88.6745 118.036C88.2952 118.449 88.1056 118.973 88.1056 119.608V126H86.5715V119.276C86.5715 118.717 86.3904 118.268 86.0281 117.927C85.6659 117.582 85.1993 117.409 84.6283 117.409C84.2362 117.409 83.8698 117.513 83.5289 117.722C83.1922 117.931 82.9195 118.221 82.7107 118.592C82.5061 118.958 82.4039 119.382 82.4039 119.864V126H80.8953ZM96.5399 129.682V116.182H97.9972V117.741H98.1762C98.287 117.571 98.4404 117.354 98.6365 117.089C98.8367 116.821 99.1222 116.582 99.493 116.374C99.868 116.161 100.375 116.054 101.014 116.054C101.841 116.054 102.57 116.261 103.2 116.674C103.831 117.087 104.323 117.673 104.677 118.432C105.031 119.19 105.207 120.085 105.207 121.116C105.207 122.156 105.031 123.058 104.677 123.82C104.323 124.579 103.833 125.167 103.207 125.585C102.58 125.998 101.858 126.205 101.04 126.205C100.409 126.205 99.9042 126.1 99.5249 125.891C99.1457 125.678 98.8538 125.437 98.6492 125.169C98.4447 124.896 98.287 124.67 98.1762 124.491H98.0484V129.682H96.5399ZM98.0228 121.091C98.0228 121.832 98.1315 122.487 98.3488 123.053C98.5661 123.616 98.8836 124.057 99.3012 124.376C99.7188 124.692 100.23 124.849 100.835 124.849C101.466 124.849 101.992 124.683 102.414 124.351C102.84 124.014 103.16 123.562 103.373 122.996C103.59 122.425 103.699 121.79 103.699 121.091C103.699 120.401 103.592 119.778 103.379 119.224C103.171 118.666 102.853 118.225 102.427 117.901C102.005 117.573 101.475 117.409 100.835 117.409C100.222 117.409 99.7061 117.565 99.2884 117.876C98.8708 118.183 98.5555 118.613 98.3424 119.167C98.1294 119.717 98.0228 120.358 98.0228 121.091ZM106.277 114.315V112.909H116.095V114.315H111.978V126H110.393V114.315H106.277ZM120.127 112.909V126H118.541V112.909H120.127ZM123.842 126H122.18L126.987 112.909H128.623L133.43 126H131.768L127.856 114.98H127.754L123.842 126ZM124.456 120.886H131.154V122.293H124.456V120.886ZM142.117 112.909V126H140.532V112.909H142.117ZM144.579 114.315V112.909H154.397V114.315H150.281V126H148.696V114.315H144.579ZM49.9514 148V134.909H57.8009V136.315H51.5367V140.739H57.2128V142.145H51.5367V148H49.9514ZM65.8836 143.986V138.182H67.3921V148H65.8836V146.338H65.7813C65.5512 146.837 65.1933 147.261 64.7075 147.61C64.2217 147.955 63.608 148.128 62.8666 148.128C62.2529 148.128 61.7075 147.994 61.2302 147.725C60.7529 147.452 60.3779 147.043 60.1052 146.498C59.8325 145.948 59.6961 145.256 59.6961 144.42V138.182H61.2046V144.318C61.2046 145.034 61.4049 145.605 61.8055 146.031C62.2103 146.457 62.7259 146.67 63.3524 146.67C63.7274 146.67 64.1088 146.575 64.4965 146.383C64.8886 146.191 65.2167 145.897 65.4809 145.501C65.7494 145.104 65.8836 144.599 65.8836 143.986ZM71.6636 142.094V148H70.1551V138.182H71.6125V139.716H71.7403C71.9704 139.217 72.3199 138.817 72.7886 138.514C73.2574 138.207 73.8625 138.054 74.604 138.054C75.2687 138.054 75.8504 138.19 76.349 138.463C76.8476 138.732 77.2354 139.141 77.5123 139.69C77.7893 140.236 77.9278 140.926 77.9278 141.761V148H76.4193V141.864C76.4193 141.092 76.219 140.491 75.8184 140.061C75.4179 139.626 74.8682 139.409 74.1693 139.409C73.6878 139.409 73.2574 139.513 72.8781 139.722C72.5031 139.931 72.2069 140.236 71.9896 140.636C71.7723 141.037 71.6636 141.523 71.6636 142.094ZM84.3918 148.205C83.5736 148.205 82.8513 147.998 82.2249 147.585C81.5985 147.167 81.1084 146.579 80.7547 145.82C80.401 145.058 80.2242 144.156 80.2242 143.116C80.2242 142.085 80.401 141.19 80.7547 140.432C81.1084 139.673 81.6006 139.087 82.2313 138.674C82.8619 138.261 83.5906 138.054 84.4173 138.054C85.0566 138.054 85.5615 138.161 85.9323 138.374C86.3073 138.582 86.5928 138.821 86.7888 139.089C86.9891 139.354 87.1446 139.571 87.2554 139.741H87.3833V134.909H88.8918V148H87.4344V146.491H87.2554C87.1446 146.67 86.9869 146.896 86.7824 147.169C86.5779 147.437 86.286 147.678 85.9067 147.891C85.5274 148.1 85.0225 148.205 84.3918 148.205ZM84.5963 146.849C85.2014 146.849 85.7128 146.692 86.1304 146.376C86.548 146.057 86.8655 145.616 87.0828 145.053C87.3002 144.487 87.4088 143.832 87.4088 143.091C87.4088 142.358 87.3023 141.717 87.0892 141.167C86.8762 140.613 86.5608 140.183 86.1432 139.876C85.7256 139.565 85.21 139.409 84.5963 139.409C83.9571 139.409 83.4244 139.573 82.9983 139.901C82.5764 140.225 82.259 140.666 82.0459 141.224C81.8371 141.778 81.7327 142.401 81.7327 143.091C81.7327 143.79 81.8392 144.425 82.0523 144.996C82.2696 145.562 82.5892 146.014 83.0111 146.351C83.4372 146.683 83.9656 146.849 84.5963 146.849ZM94.7533 148.23C94.1311 148.23 93.5665 148.113 93.0594 147.879C92.5523 147.64 92.1496 147.297 91.8513 146.849C91.553 146.398 91.4039 145.852 91.4039 145.213C91.4039 144.651 91.5146 144.195 91.7362 143.845C91.9578 143.491 92.254 143.214 92.6247 143.014C92.9955 142.814 93.4046 142.665 93.852 142.567C94.3037 142.464 94.7575 142.384 95.2135 142.324C95.8101 142.247 96.2938 142.19 96.6645 142.151C97.0395 142.109 97.3122 142.038 97.4827 141.94C97.6574 141.842 97.7448 141.672 97.7448 141.429V141.378C97.7448 140.747 97.5722 140.257 97.227 139.908C96.8861 139.558 96.3683 139.384 95.6737 139.384C94.9536 139.384 94.3889 139.541 93.9798 139.857C93.5708 140.172 93.2831 140.509 93.1169 140.866L91.6851 140.355C91.9408 139.759 92.2817 139.294 92.7078 138.962C93.1382 138.625 93.607 138.391 94.1141 138.259C94.6254 138.122 95.1283 138.054 95.6226 138.054C95.9379 138.054 96.3002 138.092 96.7093 138.169C97.1226 138.241 97.521 138.393 97.9046 138.623C98.2923 138.853 98.6141 139.2 98.8698 139.665C99.1254 140.129 99.2533 140.751 99.2533 141.531V148H97.7448V146.67H97.6681C97.5658 146.884 97.3953 147.112 97.1567 147.354C96.9181 147.597 96.6006 147.804 96.2043 147.974C95.808 148.145 95.3243 148.23 94.7533 148.23ZM94.9834 146.875C95.58 146.875 96.0828 146.758 96.4919 146.523C96.9053 146.289 97.2164 145.987 97.4252 145.616C97.6382 145.245 97.7448 144.855 97.7448 144.446V143.065C97.6808 143.142 97.5402 143.212 97.3229 143.276C97.1098 143.336 96.8627 143.389 96.5814 143.436C96.3044 143.479 96.0338 143.517 95.7696 143.551C95.5097 143.581 95.2987 143.607 95.1368 143.628C94.7448 143.679 94.3783 143.762 94.0374 143.877C93.7007 143.988 93.428 144.156 93.2192 144.382C93.0146 144.604 92.9124 144.906 92.9124 145.29C92.9124 145.814 93.1063 146.21 93.4941 146.479C93.8861 146.743 94.3825 146.875 94.9834 146.875ZM102.007 148V138.182H103.464V139.716H103.592C103.796 139.192 104.127 138.785 104.583 138.495C105.039 138.201 105.586 138.054 106.225 138.054C106.873 138.054 107.412 138.201 107.843 138.495C108.277 138.785 108.616 139.192 108.859 139.716H108.961C109.213 139.209 109.59 138.806 110.093 138.508C110.595 138.205 111.198 138.054 111.902 138.054C112.779 138.054 113.497 138.329 114.056 138.879C114.614 139.424 114.893 140.274 114.893 141.429V148H113.384V141.429C113.384 140.705 113.186 140.187 112.79 139.876C112.394 139.565 111.927 139.409 111.39 139.409C110.7 139.409 110.165 139.618 109.786 140.036C109.407 140.449 109.217 140.973 109.217 141.608V148H107.683V141.276C107.683 140.717 107.502 140.268 107.139 139.927C106.777 139.582 106.311 139.409 105.74 139.409C105.348 139.409 104.981 139.513 104.64 139.722C104.304 139.931 104.031 140.221 103.822 140.592C103.617 140.958 103.515 141.382 103.515 141.864V148H102.007ZM121.768 148.205C120.822 148.205 120.006 147.996 119.32 147.578C118.638 147.156 118.111 146.568 117.741 145.814C117.374 145.055 117.191 144.173 117.191 143.168C117.191 142.162 117.374 141.276 117.741 140.509C118.111 139.737 118.627 139.136 119.288 138.706C119.952 138.271 120.728 138.054 121.614 138.054C122.126 138.054 122.631 138.139 123.129 138.31C123.628 138.48 124.082 138.757 124.491 139.141C124.9 139.52 125.226 140.023 125.469 140.649C125.712 141.276 125.833 142.047 125.833 142.963V143.602H118.265V142.298H124.299C124.299 141.744 124.188 141.25 123.967 140.815C123.749 140.381 123.438 140.038 123.033 139.786C122.633 139.535 122.16 139.409 121.614 139.409C121.013 139.409 120.494 139.558 120.055 139.857C119.62 140.151 119.285 140.534 119.051 141.007C118.817 141.48 118.699 141.987 118.699 142.528V143.398C118.699 144.139 118.827 144.768 119.083 145.283C119.343 145.795 119.703 146.185 120.163 146.453C120.623 146.717 121.158 146.849 121.768 146.849C122.164 146.849 122.522 146.794 122.842 146.683C123.165 146.568 123.445 146.398 123.679 146.172C123.913 145.942 124.094 145.656 124.222 145.315L125.68 145.724C125.526 146.219 125.268 146.653 124.906 147.028C124.544 147.399 124.097 147.689 123.564 147.898C123.031 148.102 122.432 148.205 121.768 148.205ZM129.636 142.094V148H128.128V138.182H129.585V139.716H129.713C129.943 139.217 130.293 138.817 130.761 138.514C131.23 138.207 131.835 138.054 132.577 138.054C133.241 138.054 133.823 138.19 134.322 138.463C134.82 138.732 135.208 139.141 135.485 139.69C135.762 140.236 135.9 140.926 135.9 141.761V148H134.392V141.864C134.392 141.092 134.192 140.491 133.791 140.061C133.391 139.626 132.841 139.409 132.142 139.409C131.66 139.409 131.23 139.513 130.851 139.722C130.476 139.931 130.18 140.236 129.962 140.636C129.745 141.037 129.636 141.523 129.636 142.094ZM142.927 138.182V139.46H137.839V138.182H142.927ZM139.322 135.83H140.83V145.188C140.83 145.614 140.892 145.933 141.016 146.146C141.144 146.355 141.305 146.496 141.502 146.568C141.702 146.636 141.913 146.67 142.134 146.67C142.301 146.67 142.437 146.662 142.543 146.645C142.65 146.624 142.735 146.607 142.799 146.594L143.106 147.949C143.004 147.987 142.861 148.026 142.678 148.064C142.494 148.107 142.262 148.128 141.981 148.128C141.555 148.128 141.137 148.036 140.728 147.853C140.323 147.67 139.987 147.391 139.718 147.016C139.454 146.641 139.322 146.168 139.322 145.597V135.83ZM148.085 148.23C147.463 148.23 146.899 148.113 146.391 147.879C145.884 147.64 145.482 147.297 145.183 146.849C144.885 146.398 144.736 145.852 144.736 145.213C144.736 144.651 144.847 144.195 145.068 143.845C145.29 143.491 145.586 143.214 145.957 143.014C146.328 142.814 146.737 142.665 147.184 142.567C147.636 142.464 148.09 142.384 148.546 142.324C149.142 142.247 149.626 142.19 149.997 142.151C150.372 142.109 150.644 142.038 150.815 141.94C150.989 141.842 151.077 141.672 151.077 141.429V141.378C151.077 140.747 150.904 140.257 150.559 139.908C150.218 139.558 149.7 139.384 149.006 139.384C148.286 139.384 147.721 139.541 147.312 139.857C146.903 140.172 146.615 140.509 146.449 140.866L145.017 140.355C145.273 139.759 145.614 139.294 146.04 138.962C146.47 138.625 146.939 138.391 147.446 138.259C147.957 138.122 148.46 138.054 148.955 138.054C149.27 138.054 149.632 138.092 150.041 138.169C150.455 138.241 150.853 138.393 151.237 138.623C151.624 138.853 151.946 139.2 152.202 139.665C152.457 140.129 152.585 140.751 152.585 141.531V148H151.077V146.67H151C150.898 146.884 150.727 147.112 150.489 147.354C150.25 147.597 149.933 147.804 149.536 147.974C149.14 148.145 148.656 148.23 148.085 148.23ZM148.315 146.875C148.912 146.875 149.415 146.758 149.824 146.523C150.237 146.289 150.548 145.987 150.757 145.616C150.97 145.245 151.077 144.855 151.077 144.446V143.065C151.013 143.142 150.872 143.212 150.655 143.276C150.442 143.336 150.195 143.389 149.913 143.436C149.636 143.479 149.366 143.517 149.102 143.551C148.842 143.581 148.631 143.607 148.469 143.628C148.077 143.679 147.71 143.762 147.369 143.877C147.033 143.988 146.76 144.156 146.551 144.382C146.347 144.604 146.244 144.906 146.244 145.29C146.244 145.814 146.438 146.21 146.826 146.479C147.218 146.743 147.715 146.875 148.315 146.875ZM156.847 134.909V148H155.339V134.909H156.847ZM166.565 140.381L165.21 140.764C165.124 140.538 164.999 140.319 164.832 140.106C164.671 139.888 164.449 139.71 164.168 139.569C163.886 139.428 163.526 139.358 163.087 139.358C162.487 139.358 161.986 139.496 161.585 139.773C161.189 140.046 160.991 140.393 160.991 140.815C160.991 141.19 161.127 141.487 161.4 141.704C161.673 141.921 162.099 142.102 162.678 142.247L164.136 142.605C165.014 142.818 165.668 143.144 166.098 143.583C166.528 144.018 166.744 144.578 166.744 145.264C166.744 145.827 166.582 146.33 166.258 146.773C165.938 147.216 165.491 147.565 164.916 147.821C164.34 148.077 163.671 148.205 162.908 148.205C161.907 148.205 161.078 147.987 160.422 147.553C159.766 147.118 159.35 146.483 159.176 145.648L160.607 145.29C160.744 145.818 161.002 146.214 161.381 146.479C161.764 146.743 162.265 146.875 162.883 146.875C163.586 146.875 164.144 146.726 164.558 146.428C164.975 146.125 165.184 145.763 165.184 145.341C165.184 145 165.065 144.714 164.826 144.484C164.587 144.25 164.221 144.075 163.727 143.96L162.09 143.577C161.191 143.364 160.531 143.033 160.109 142.586C159.691 142.134 159.482 141.57 159.482 140.892C159.482 140.338 159.638 139.848 159.949 139.422C160.264 138.996 160.693 138.661 161.234 138.418C161.779 138.175 162.397 138.054 163.087 138.054C164.059 138.054 164.822 138.267 165.376 138.693C165.934 139.119 166.33 139.682 166.565 140.381ZM67.7541 161H66.1689C66.0751 160.544 65.911 160.143 65.6767 159.798C65.4466 159.453 65.1653 159.163 64.8329 158.929C64.5048 158.69 64.1404 158.511 63.7399 158.392C63.3393 158.273 62.9217 158.213 62.487 158.213C61.6944 158.213 60.9764 158.413 60.3329 158.814C59.6937 159.214 59.1845 159.805 58.8052 160.585C58.4302 161.364 58.2427 162.321 58.2427 163.455C58.2427 164.588 58.4302 165.545 58.8052 166.325C59.1845 167.104 59.6937 167.695 60.3329 168.095C60.9764 168.496 61.6944 168.696 62.487 168.696C62.9217 168.696 63.3393 168.636 63.7399 168.517C64.1404 168.398 64.5048 168.221 64.8329 167.987C65.1653 167.748 65.4466 167.456 65.6767 167.111C65.911 166.761 66.0751 166.361 66.1689 165.909H67.7541C67.6348 166.578 67.4174 167.177 67.1021 167.705C66.7868 168.234 66.3947 168.683 65.926 169.054C65.4572 169.42 64.9309 169.7 64.3471 169.891C63.7676 170.083 63.1475 170.179 62.487 170.179C61.3706 170.179 60.3777 169.906 59.5083 169.361C58.639 168.815 57.9551 168.04 57.4565 167.034C56.9579 166.028 56.7086 164.835 56.7086 163.455C56.7086 162.074 56.9579 160.881 57.4565 159.875C57.9551 158.869 58.639 158.094 59.5083 157.548C60.3777 157.003 61.3706 156.73 62.487 156.73C63.1475 156.73 63.7676 156.826 64.3471 157.018C64.9309 157.21 65.4572 157.491 65.926 157.862C66.3947 158.228 66.7868 158.675 67.1021 159.204C67.4174 159.728 67.6348 160.327 67.7541 161ZM74.2276 170.205C73.2816 170.205 72.4656 169.996 71.7795 169.578C71.0977 169.156 70.5714 168.568 70.2006 167.814C69.8342 167.055 69.6509 166.173 69.6509 165.168C69.6509 164.162 69.8342 163.276 70.2006 162.509C70.5714 161.737 71.087 161.136 71.7475 160.706C72.4123 160.271 73.1879 160.054 74.0742 160.054C74.5856 160.054 75.0906 160.139 75.5891 160.31C76.0877 160.48 76.5415 160.757 76.9506 161.141C77.3597 161.52 77.6857 162.023 77.9286 162.649C78.1715 163.276 78.293 164.047 78.293 164.963V165.602H70.7248V164.298H76.7589C76.7589 163.744 76.6481 163.25 76.4265 162.815C76.2092 162.381 75.8981 162.038 75.4933 161.786C75.0927 161.535 74.6197 161.409 74.0742 161.409C73.4734 161.409 72.9535 161.558 72.5146 161.857C72.0799 162.151 71.7454 162.534 71.511 163.007C71.2766 163.48 71.1594 163.987 71.1594 164.528V165.398C71.1594 166.139 71.2873 166.768 71.543 167.283C71.8029 167.795 72.163 168.185 72.6232 168.453C73.0835 168.717 73.6183 168.849 74.2276 168.849C74.6239 168.849 74.9819 168.794 75.3015 168.683C75.6254 168.568 75.9045 168.398 76.1388 168.172C76.3732 167.942 76.5543 167.656 76.6822 167.315L78.1396 167.724C77.9862 168.219 77.7283 168.653 77.3661 169.028C77.0039 169.399 76.5565 169.689 76.0238 169.898C75.4911 170.102 74.8924 170.205 74.2276 170.205ZM80.5877 170V160.182H82.0451V161.665H82.1474C82.3263 161.179 82.6502 160.785 83.119 160.482C83.5877 160.18 84.1161 160.028 84.7042 160.028C84.815 160.028 84.9535 160.031 85.1197 160.035C85.2859 160.039 85.4116 160.045 85.4968 160.054V161.588C85.4457 161.575 85.3285 161.556 85.1452 161.531C84.9663 161.501 84.7766 161.486 84.5763 161.486C84.0991 161.486 83.6729 161.586 83.2979 161.786C82.9272 161.982 82.6332 162.255 82.4158 162.604C82.2028 162.95 82.0962 163.344 82.0962 163.787V170H80.5877ZM92.1701 160.182V161.46H87.082V160.182H92.1701ZM88.565 157.83H90.0735V167.188C90.0735 167.614 90.1353 167.933 90.2589 168.146C90.3867 168.355 90.5487 168.496 90.7447 168.568C90.945 168.636 91.1559 168.67 91.3775 168.67C91.5437 168.67 91.68 168.662 91.7866 168.645C91.8931 168.624 91.9783 168.607 92.0423 168.594L92.3491 169.949C92.2468 169.987 92.104 170.026 91.9208 170.064C91.7376 170.107 91.5053 170.128 91.2241 170.128C90.7979 170.128 90.3803 170.036 89.9712 169.853C89.5664 169.67 89.2298 169.391 88.9613 169.016C88.6971 168.641 88.565 168.168 88.565 167.597V157.83ZM94.4393 170V160.182H95.9478V170H94.4393ZM95.2063 158.545C94.9123 158.545 94.6587 158.445 94.4457 158.245C94.2369 158.045 94.1325 157.804 94.1325 157.523C94.1325 157.241 94.2369 157.001 94.4457 156.8C94.6587 156.6 94.9123 156.5 95.2063 156.5C95.5004 156.5 95.7518 156.6 95.9606 156.8C96.1737 157.001 96.2802 157.241 96.2802 157.523C96.2802 157.804 96.1737 158.045 95.9606 158.245C95.7518 158.445 95.5004 158.545 95.2063 158.545ZM103.083 160.182V161.46H97.7903V160.182H103.083ZM99.3755 170V158.827C99.3755 158.264 99.5076 157.795 99.7718 157.42C100.036 157.045 100.379 156.764 100.801 156.577C101.223 156.389 101.668 156.295 102.137 156.295C102.508 156.295 102.81 156.325 103.045 156.385C103.279 156.445 103.454 156.5 103.569 156.551L103.134 157.855C103.057 157.83 102.951 157.798 102.814 157.759C102.682 157.721 102.508 157.702 102.29 157.702C101.792 157.702 101.432 157.827 101.21 158.079C100.993 158.33 100.884 158.699 100.884 159.185V170H99.3755ZM105.197 170V160.182H106.706V170H105.197ZM105.964 158.545C105.67 158.545 105.417 158.445 105.203 158.245C104.995 158.045 104.89 157.804 104.89 157.523C104.89 157.241 104.995 157.001 105.203 156.8C105.417 156.6 105.67 156.5 105.964 156.5C106.258 156.5 106.51 156.6 106.718 156.8C106.931 157.001 107.038 157.241 107.038 157.523C107.038 157.804 106.931 158.045 106.718 158.245C106.51 158.445 106.258 158.545 105.964 158.545ZM113.457 170.205C112.537 170.205 111.744 169.987 111.079 169.553C110.415 169.118 109.903 168.519 109.545 167.756C109.187 166.994 109.008 166.122 109.008 165.142C109.008 164.145 109.192 163.265 109.558 162.502C109.929 161.735 110.444 161.136 111.105 160.706C111.77 160.271 112.545 160.054 113.432 160.054C114.122 160.054 114.744 160.182 115.298 160.438C115.852 160.693 116.306 161.051 116.66 161.511C117.013 161.972 117.233 162.509 117.318 163.122H115.809C115.694 162.675 115.439 162.278 115.042 161.933C114.65 161.584 114.122 161.409 113.457 161.409C112.869 161.409 112.354 161.562 111.91 161.869C111.471 162.172 111.128 162.6 110.881 163.154C110.638 163.704 110.517 164.349 110.517 165.091C110.517 165.849 110.636 166.51 110.875 167.072C111.118 167.635 111.459 168.072 111.898 168.383C112.341 168.694 112.861 168.849 113.457 168.849C113.849 168.849 114.205 168.781 114.525 168.645C114.844 168.509 115.115 168.312 115.336 168.057C115.558 167.801 115.716 167.494 115.809 167.136H117.318C117.233 167.716 117.022 168.238 116.685 168.702C116.353 169.163 115.912 169.529 115.362 169.802C114.817 170.07 114.182 170.205 113.457 170.205ZM122.412 170.23C121.79 170.23 121.226 170.113 120.719 169.879C120.211 169.64 119.809 169.297 119.51 168.849C119.212 168.398 119.063 167.852 119.063 167.213C119.063 166.651 119.174 166.195 119.395 165.845C119.617 165.491 119.913 165.214 120.284 165.014C120.655 164.814 121.064 164.665 121.511 164.567C121.963 164.464 122.417 164.384 122.873 164.324C123.469 164.247 123.953 164.19 124.324 164.151C124.699 164.109 124.971 164.038 125.142 163.94C125.317 163.842 125.404 163.672 125.404 163.429V163.378C125.404 162.747 125.231 162.257 124.886 161.908C124.545 161.558 124.028 161.384 123.333 161.384C122.613 161.384 122.048 161.541 121.639 161.857C121.23 162.172 120.942 162.509 120.776 162.866L119.344 162.355C119.6 161.759 119.941 161.294 120.367 160.962C120.797 160.625 121.266 160.391 121.773 160.259C122.285 160.122 122.787 160.054 123.282 160.054C123.597 160.054 123.959 160.092 124.368 160.169C124.782 160.241 125.18 160.393 125.564 160.623C125.952 160.853 126.273 161.2 126.529 161.665C126.785 162.129 126.912 162.751 126.912 163.531V170H125.404V168.67H125.327C125.225 168.884 125.055 169.112 124.816 169.354C124.577 169.597 124.26 169.804 123.863 169.974C123.467 170.145 122.983 170.23 122.412 170.23ZM122.643 168.875C123.239 168.875 123.742 168.758 124.151 168.523C124.564 168.289 124.876 167.987 125.084 167.616C125.297 167.245 125.404 166.855 125.404 166.446V165.065C125.34 165.142 125.199 165.212 124.982 165.276C124.769 165.336 124.522 165.389 124.241 165.436C123.964 165.479 123.693 165.517 123.429 165.551C123.169 165.581 122.958 165.607 122.796 165.628C122.404 165.679 122.037 165.762 121.697 165.877C121.36 165.988 121.087 166.156 120.878 166.382C120.674 166.604 120.572 166.906 120.572 167.29C120.572 167.814 120.765 168.21 121.153 168.479C121.545 168.743 122.042 168.875 122.643 168.875ZM133.936 160.182V161.46H128.848V160.182H133.936ZM130.331 157.83H131.839V167.188C131.839 167.614 131.901 167.933 132.025 168.146C132.152 168.355 132.314 168.496 132.51 168.568C132.711 168.636 132.922 168.67 133.143 168.67C133.309 168.67 133.446 168.662 133.552 168.645C133.659 168.624 133.744 168.607 133.808 168.594L134.115 169.949C134.012 169.987 133.87 170.026 133.686 170.064C133.503 170.107 133.271 170.128 132.99 170.128C132.564 170.128 132.146 170.036 131.737 169.853C131.332 169.67 130.995 169.391 130.727 169.016C130.463 168.641 130.331 168.168 130.331 167.597V157.83ZM136.205 170V160.182H137.713V170H136.205ZM136.972 158.545C136.678 158.545 136.424 158.445 136.211 158.245C136.002 158.045 135.898 157.804 135.898 157.523C135.898 157.241 136.002 157.001 136.211 156.8C136.424 156.6 136.678 156.5 136.972 156.5C137.266 156.5 137.517 156.6 137.726 156.8C137.939 157.001 138.046 157.241 138.046 157.523C138.046 157.804 137.939 158.045 137.726 158.245C137.517 158.445 137.266 158.545 136.972 158.545ZM144.465 170.205C143.579 170.205 142.801 169.994 142.132 169.572C141.467 169.15 140.947 168.56 140.572 167.801C140.202 167.043 140.016 166.156 140.016 165.142C140.016 164.119 140.202 163.227 140.572 162.464C140.947 161.701 141.467 161.109 142.132 160.687C142.801 160.265 143.579 160.054 144.465 160.054C145.351 160.054 146.127 160.265 146.792 160.687C147.461 161.109 147.981 161.701 148.351 162.464C148.726 163.227 148.914 164.119 148.914 165.142C148.914 166.156 148.726 167.043 148.351 167.801C147.981 168.56 147.461 169.15 146.792 169.572C146.127 169.994 145.351 170.205 144.465 170.205ZM144.465 168.849C145.138 168.849 145.692 168.677 146.127 168.332C146.562 167.987 146.883 167.533 147.092 166.97C147.301 166.408 147.405 165.798 147.405 165.142C147.405 164.486 147.301 163.874 147.092 163.308C146.883 162.741 146.562 162.283 146.127 161.933C145.692 161.584 145.138 161.409 144.465 161.409C143.792 161.409 143.238 161.584 142.803 161.933C142.368 162.283 142.047 162.741 141.838 163.308C141.629 163.874 141.525 164.486 141.525 165.142C141.525 165.798 141.629 166.408 141.838 166.97C142.047 167.533 142.368 167.987 142.803 168.332C143.238 168.677 143.792 168.849 144.465 168.849ZM152.725 164.094V170H151.217V160.182H152.674V161.716H152.802C153.032 161.217 153.381 160.817 153.85 160.514C154.319 160.207 154.924 160.054 155.665 160.054C156.33 160.054 156.912 160.19 157.411 160.463C157.909 160.732 158.297 161.141 158.574 161.69C158.851 162.236 158.989 162.926 158.989 163.761V170H157.481V163.864C157.481 163.092 157.281 162.491 156.88 162.061C156.479 161.626 155.93 161.409 155.231 161.409C154.749 161.409 154.319 161.513 153.94 161.722C153.565 161.931 153.268 162.236 153.051 162.636C152.834 163.037 152.725 163.523 152.725 164.094Z" fill="black"/>
</svg>
