<svg width="216" height="196" viewBox="0 0 216 196" fill="none" xmlns="http://www.w3.org/2000/svg">
<rect width="216" height="196" rx="15" fill="#EEEEEE"/>
<path fill-rule="evenodd" clip-rule="evenodd" d="M97.9588 64.9518C97.9713 61.6421 100.658 58.9652 103.968 58.9652V52.956H80V58.9652C83.3097 58.9652 85.9968 61.6421 86.0093 64.9518C85.9968 68.2611 83.3097 70.9379 80 70.9379V76.9472H103.95V70.9379C100.647 70.9277 97.9713 68.2546 97.9588 64.9518Z" fill="#05BFE0"/>
<path fill-rule="evenodd" clip-rule="evenodd" d="M117.951 38.9727C117.949 32.3598 112.587 27.0001 105.974 27.0001V50.9501C112.587 50.9501 117.949 45.5903 117.951 38.9774C117.954 45.5885 123.313 50.9473 129.924 50.9501V27.0001C123.311 27.0001 117.951 32.3602 117.951 38.9727Z" fill="#FF610F"/>
<path fill-rule="evenodd" clip-rule="evenodd" d="M95.7167 38.9728H84.4884V31.4885H95.7167C97.7833 31.5617 99.4 33.2955 99.3269 35.3621C99.2579 37.3269 97.6815 38.9038 95.7167 38.9728ZM96.4657 27.0371C96.2157 27.0001 95.9662 27.0001 95.7167 27.0001H80V50.9501H84.4884V43.4658H95.7167C95.9662 43.4658 96.2157 43.4658 96.4657 43.4288C100.992 43.026 104.335 39.0306 103.932 34.5043C103.579 30.5357 100.434 27.3899 96.4657 27.0371Z" fill="black"/>
<path fill-rule="evenodd" clip-rule="evenodd" d="M105.979 76.9242V70.1473L112.756 76.9242H105.979Z" fill="#4F17A8"/>
<path fill-rule="evenodd" clip-rule="evenodd" d="M119.634 76.9242L105.979 63.2644V56.3816L126.517 76.9242H119.634Z" fill="#4F17A8"/>
<path fill-rule="evenodd" clip-rule="evenodd" d="M129.924 52.9789V59.6776L123.221 52.9789H129.924Z" fill="#4F17A8"/>
<path fill-rule="evenodd" clip-rule="evenodd" d="M129.924 73.4434L109.455 52.979H116.338L129.924 66.5605V73.4434Z" fill="#4F17A8"/>
<mask id="mask0_197_380" style="mask-type:alpha" maskUnits="userSpaceOnUse" x="131" y="75" width="4" height="2">
<path d="M131.5 75.3156H134.666V76.9243H131.5V75.3156Z" fill="white"/>
</mask>
<g mask="url(#mask0_197_380)">
<path fill-rule="evenodd" clip-rule="evenodd" d="M132.845 75.3156H133.192L133.761 76.5961L134.315 75.3156H134.667V76.9243H134.417V75.6804L133.876 76.9243H133.622L133.081 75.6804V76.9243H132.831L132.845 75.3156ZM131.963 75.5373H131.5V75.3156H132.697V75.5373H132.235V76.9243H131.986L131.963 75.5373Z" fill="black"/>
</g>
<path d="M21.8694 126V112.909H26.2927C27.3197 112.909 28.1592 113.094 28.8112 113.465C29.4674 113.832 29.9532 114.328 30.2686 114.955C30.5839 115.581 30.7416 116.28 30.7416 117.051C30.7416 117.822 30.5839 118.523 30.2686 119.154C29.9575 119.785 29.4759 120.288 28.824 120.663C28.172 121.033 27.3367 121.219 26.3183 121.219H23.1478V119.812H26.2671C26.9703 119.812 27.5349 119.691 27.961 119.448C28.3872 119.205 28.6961 118.877 28.8879 118.464C29.0839 118.046 29.1819 117.575 29.1819 117.051C29.1819 116.527 29.0839 116.058 28.8879 115.645C28.6961 115.232 28.385 114.908 27.9546 114.673C27.5242 114.435 26.9532 114.315 26.2416 114.315H23.4546V126H21.8694ZM33.0906 126V116.182H34.548V117.665H34.6503C34.8293 117.179 35.1531 116.785 35.6219 116.482C36.0906 116.18 36.6191 116.028 37.2071 116.028C37.3179 116.028 37.4564 116.031 37.6226 116.035C37.7888 116.039 37.9145 116.045 37.9997 116.054V117.588C37.9486 117.575 37.8314 117.556 37.6482 117.531C37.4692 117.501 37.2796 117.486 37.0793 117.486C36.602 117.486 36.1759 117.586 35.8009 117.786C35.4301 117.982 35.1361 118.255 34.9188 118.604C34.7057 118.95 34.5992 119.344 34.5992 119.787V126H33.0906ZM43.4777 126.205C42.5914 126.205 41.8137 125.994 41.1446 125.572C40.4798 125.15 39.96 124.56 39.585 123.801C39.2142 123.043 39.0289 122.156 39.0289 121.142C39.0289 120.119 39.2142 119.227 39.585 118.464C39.96 117.701 40.4798 117.109 41.1446 116.687C41.8137 116.265 42.5914 116.054 43.4777 116.054C44.3641 116.054 45.1396 116.265 45.8044 116.687C46.4735 117.109 46.9933 117.701 47.3641 118.464C47.7391 119.227 47.9266 120.119 47.9266 121.142C47.9266 122.156 47.7391 123.043 47.3641 123.801C46.9933 124.56 46.4735 125.15 45.8044 125.572C45.1396 125.994 44.3641 126.205 43.4777 126.205ZM43.4777 124.849C44.151 124.849 44.705 124.677 45.1396 124.332C45.5743 123.987 45.896 123.533 46.1048 122.97C46.3137 122.408 46.4181 121.798 46.4181 121.142C46.4181 120.486 46.3137 119.874 46.1048 119.308C45.896 118.741 45.5743 118.283 45.1396 117.933C44.705 117.584 44.151 117.409 43.4777 117.409C42.8044 117.409 42.2504 117.584 41.8158 117.933C41.3811 118.283 41.0594 118.741 40.8506 119.308C40.6418 119.874 40.5374 120.486 40.5374 121.142C40.5374 121.798 40.6418 122.408 40.8506 122.97C41.0594 123.533 41.3811 123.987 41.8158 124.332C42.2504 124.677 42.8044 124.849 43.4777 124.849ZM50.2293 116.182H51.7378V126.716C51.7378 127.321 51.6334 127.845 51.4246 128.288C51.2201 128.732 50.909 129.075 50.4914 129.317C50.078 129.56 49.556 129.682 48.9253 129.682C48.8742 129.682 48.8231 129.682 48.7719 129.682C48.7208 129.682 48.6697 129.682 48.6185 129.682V128.276C48.6697 128.276 48.7165 128.276 48.7591 128.276C48.8018 128.276 48.8486 128.276 48.8998 128.276C49.36 128.276 49.6966 128.139 49.9097 127.866C50.1228 127.598 50.2293 127.214 50.2293 126.716V116.182ZM50.9708 114.545C50.6768 114.545 50.4232 114.445 50.2101 114.245C50.0013 114.045 49.8969 113.804 49.8969 113.523C49.8969 113.241 50.0013 113.001 50.2101 112.8C50.4232 112.6 50.6768 112.5 50.9708 112.5C51.2648 112.5 51.5162 112.6 51.7251 112.8C51.9381 113.001 52.0447 113.241 52.0447 113.523C52.0447 113.804 51.9381 114.045 51.7251 114.245C51.5162 114.445 51.2648 114.545 50.9708 114.545ZM58.6173 126.205C57.6713 126.205 56.8552 125.996 56.1691 125.578C55.4873 125.156 54.961 124.568 54.5903 123.814C54.2238 123.055 54.0406 122.173 54.0406 121.168C54.0406 120.162 54.2238 119.276 54.5903 118.509C54.961 117.737 55.4767 117.136 56.1372 116.706C56.8019 116.271 57.5775 116.054 58.4639 116.054C58.9752 116.054 59.4802 116.139 59.9788 116.31C60.4774 116.48 60.9312 116.757 61.3403 117.141C61.7494 117.52 62.0754 118.023 62.3183 118.649C62.5612 119.276 62.6826 120.047 62.6826 120.963V121.602H55.1144V120.298H61.1485C61.1485 119.744 61.0377 119.25 60.8161 118.815C60.5988 118.381 60.2877 118.038 59.8829 117.786C59.4823 117.535 59.0093 117.409 58.4639 117.409C57.863 117.409 57.3431 117.558 56.9042 117.857C56.4695 118.151 56.135 118.534 55.9007 119.007C55.6663 119.48 55.5491 119.987 55.5491 120.528V121.398C55.5491 122.139 55.6769 122.768 55.9326 123.283C56.1926 123.795 56.5526 124.185 57.0129 124.453C57.4731 124.717 58.0079 124.849 58.6173 124.849C59.0136 124.849 59.3715 124.794 59.6911 124.683C60.015 124.568 60.2941 124.398 60.5285 124.172C60.7629 123.942 60.944 123.656 61.0718 123.315L62.5292 123.724C62.3758 124.219 62.118 124.653 61.7558 125.028C61.3936 125.399 60.9461 125.689 60.4134 125.898C59.8808 126.102 59.282 126.205 58.6173 126.205ZM68.966 126.205C68.0455 126.205 67.2529 125.987 66.5882 125.553C65.9234 125.118 65.412 124.519 65.0541 123.756C64.6961 122.994 64.5171 122.122 64.5171 121.142C64.5171 120.145 64.7004 119.265 65.0669 118.502C65.4376 117.735 65.9532 117.136 66.6137 116.706C67.2785 116.271 68.0541 116.054 68.9404 116.054C69.6308 116.054 70.2529 116.182 70.8069 116.438C71.3609 116.693 71.8147 117.051 72.1684 117.511C72.5221 117.972 72.7416 118.509 72.8268 119.122H71.3183C71.2032 118.675 70.9475 118.278 70.5512 117.933C70.1592 117.584 69.6308 117.409 68.966 117.409C68.3779 117.409 67.8623 117.562 67.4191 117.869C66.9802 118.172 66.6372 118.6 66.39 119.154C66.1471 119.704 66.0257 120.349 66.0257 121.091C66.0257 121.849 66.145 122.51 66.3836 123.072C66.6265 123.635 66.9674 124.072 67.4063 124.383C67.8495 124.694 68.3694 124.849 68.966 124.849C69.358 124.849 69.7139 124.781 70.0335 124.645C70.3531 124.509 70.6237 124.312 70.8453 124.057C71.0669 123.801 71.2245 123.494 71.3183 123.136H72.8268C72.7416 123.716 72.5306 124.238 72.194 124.702C71.8616 125.163 71.4205 125.529 70.8708 125.802C70.3254 126.07 69.6904 126.205 68.966 126.205ZM79.3019 116.182V117.46H74.2139V116.182H79.3019ZM75.6968 113.83H77.2053V123.188C77.2053 123.614 77.2671 123.933 77.3907 124.146C77.5186 124.355 77.6805 124.496 77.8765 124.568C78.0768 124.636 78.2877 124.67 78.5093 124.67C78.6755 124.67 78.8119 124.662 78.9184 124.645C79.0249 124.624 79.1102 124.607 79.1741 124.594L79.4809 125.949C79.3786 125.987 79.2359 126.026 79.0526 126.064C78.8694 126.107 78.6372 126.128 78.3559 126.128C77.9298 126.128 77.5122 126.036 77.1031 125.853C76.6982 125.67 76.3616 125.391 76.0931 125.016C75.8289 124.641 75.6968 124.168 75.6968 123.597V113.83ZM86.8382 112.909H88.7302L93.1791 123.776H93.3325L97.7813 112.909H99.6734V126H98.1904V116.054H98.0626L93.9717 126H92.5399L88.449 116.054H88.3211V126H86.8382V112.909ZM105.536 126.23C104.914 126.23 104.35 126.113 103.843 125.879C103.335 125.64 102.933 125.297 102.634 124.849C102.336 124.398 102.187 123.852 102.187 123.213C102.187 122.651 102.298 122.195 102.519 121.845C102.741 121.491 103.037 121.214 103.408 121.014C103.779 120.814 104.188 120.665 104.635 120.567C105.087 120.464 105.541 120.384 105.997 120.324C106.593 120.247 107.077 120.19 107.448 120.151C107.823 120.109 108.095 120.038 108.266 119.94C108.441 119.842 108.528 119.672 108.528 119.429V119.378C108.528 118.747 108.355 118.257 108.01 117.908C107.669 117.558 107.152 117.384 106.457 117.384C105.737 117.384 105.172 117.541 104.763 117.857C104.354 118.172 104.066 118.509 103.9 118.866L102.468 118.355C102.724 117.759 103.065 117.294 103.491 116.962C103.921 116.625 104.39 116.391 104.897 116.259C105.409 116.122 105.911 116.054 106.406 116.054C106.721 116.054 107.083 116.092 107.492 116.169C107.906 116.241 108.304 116.393 108.688 116.623C109.076 116.853 109.397 117.2 109.653 117.665C109.909 118.129 110.036 118.751 110.036 119.531V126H108.528V124.67H108.451C108.349 124.884 108.179 125.112 107.94 125.354C107.701 125.597 107.384 125.804 106.987 125.974C106.591 126.145 106.108 126.23 105.536 126.23ZM105.767 124.875C106.363 124.875 106.866 124.758 107.275 124.523C107.688 124.289 108 123.987 108.208 123.616C108.421 123.245 108.528 122.855 108.528 122.446V121.065C108.464 121.142 108.323 121.212 108.106 121.276C107.893 121.336 107.646 121.389 107.365 121.436C107.088 121.479 106.817 121.517 106.553 121.551C106.293 121.581 106.082 121.607 105.92 121.628C105.528 121.679 105.161 121.762 104.821 121.877C104.484 121.988 104.211 122.156 104.002 122.382C103.798 122.604 103.696 122.906 103.696 123.29C103.696 123.814 103.889 124.21 104.277 124.479C104.669 124.743 105.166 124.875 105.767 124.875ZM114.298 120.094V126H112.79V116.182H114.247V117.716H114.375C114.605 117.217 114.955 116.817 115.423 116.514C115.892 116.207 116.497 116.054 117.239 116.054C117.903 116.054 118.485 116.19 118.984 116.463C119.482 116.732 119.87 117.141 120.147 117.69C120.424 118.236 120.563 118.926 120.563 119.761V126H119.054V119.864C119.054 119.092 118.854 118.491 118.453 118.061C118.053 117.626 117.503 117.409 116.804 117.409C116.323 117.409 115.892 117.513 115.513 117.722C115.138 117.931 114.842 118.236 114.624 118.636C114.407 119.037 114.298 119.523 114.298 120.094ZM126.208 126.23C125.586 126.23 125.022 126.113 124.514 125.879C124.007 125.64 123.605 125.297 123.306 124.849C123.008 124.398 122.859 123.852 122.859 123.213C122.859 122.651 122.97 122.195 123.191 121.845C123.413 121.491 123.709 121.214 124.08 121.014C124.451 120.814 124.86 120.665 125.307 120.567C125.759 120.464 126.213 120.384 126.669 120.324C127.265 120.247 127.749 120.19 128.12 120.151C128.495 120.109 128.767 120.038 128.938 119.94C129.112 119.842 129.2 119.672 129.2 119.429V119.378C129.2 118.747 129.027 118.257 128.682 117.908C128.341 117.558 127.823 117.384 127.129 117.384C126.409 117.384 125.844 117.541 125.435 117.857C125.026 118.172 124.738 118.509 124.572 118.866L123.14 118.355C123.396 117.759 123.737 117.294 124.163 116.962C124.593 116.625 125.062 116.391 125.569 116.259C126.081 116.122 126.583 116.054 127.078 116.054C127.393 116.054 127.755 116.092 128.164 116.169C128.578 116.241 128.976 116.393 129.36 116.623C129.747 116.853 130.069 117.2 130.325 117.665C130.581 118.129 130.708 118.751 130.708 119.531V126H129.2V124.67H129.123C129.021 124.884 128.85 125.112 128.612 125.354C128.373 125.597 128.056 125.804 127.659 125.974C127.263 126.145 126.779 126.23 126.208 126.23ZM126.438 124.875C127.035 124.875 127.538 124.758 127.947 124.523C128.36 124.289 128.671 123.987 128.88 123.616C129.093 123.245 129.2 122.855 129.2 122.446V121.065C129.136 121.142 128.995 121.212 128.778 121.276C128.565 121.336 128.318 121.389 128.036 121.436C127.759 121.479 127.489 121.517 127.225 121.551C126.965 121.581 126.754 121.607 126.592 121.628C126.2 121.679 125.833 121.762 125.492 121.877C125.156 121.988 124.883 122.156 124.674 122.382C124.47 122.604 124.367 122.906 124.367 123.29C124.367 123.814 124.561 124.21 124.949 124.479C125.341 124.743 125.838 124.875 126.438 124.875ZM137.425 129.886C136.696 129.886 136.07 129.793 135.546 129.605C135.021 129.422 134.585 129.179 134.235 128.876C133.89 128.578 133.615 128.259 133.411 127.918L134.612 127.074C134.749 127.253 134.921 127.457 135.13 127.688C135.339 127.922 135.624 128.124 135.987 128.295C136.353 128.469 136.832 128.557 137.425 128.557C138.217 128.557 138.872 128.365 139.387 127.982C139.903 127.598 140.161 126.997 140.161 126.179V124.185H140.033C139.922 124.364 139.764 124.585 139.56 124.849C139.359 125.109 139.07 125.342 138.69 125.546C138.315 125.746 137.808 125.847 137.169 125.847C136.377 125.847 135.665 125.659 135.034 125.284C134.408 124.909 133.911 124.364 133.545 123.648C133.183 122.932 133.002 122.062 133.002 121.04C133.002 120.034 133.178 119.158 133.532 118.413C133.886 117.663 134.378 117.083 135.009 116.674C135.639 116.261 136.368 116.054 137.195 116.054C137.834 116.054 138.341 116.161 138.716 116.374C139.095 116.582 139.385 116.821 139.585 117.089C139.79 117.354 139.948 117.571 140.058 117.741H140.212V116.182H141.669V126.281C141.669 127.125 141.477 127.811 141.094 128.339C140.715 128.872 140.203 129.262 139.56 129.509C138.921 129.761 138.209 129.886 137.425 129.886ZM137.374 124.491C137.979 124.491 138.49 124.353 138.908 124.076C139.325 123.799 139.643 123.401 139.86 122.881C140.078 122.361 140.186 121.739 140.186 121.014C140.186 120.307 140.08 119.683 139.867 119.141C139.653 118.6 139.338 118.176 138.921 117.869C138.503 117.562 137.987 117.409 137.374 117.409C136.734 117.409 136.202 117.571 135.776 117.895C135.354 118.219 135.036 118.653 134.823 119.199C134.614 119.744 134.51 120.349 134.51 121.014C134.51 121.696 134.617 122.299 134.83 122.823C135.047 123.343 135.367 123.752 135.788 124.05C136.215 124.344 136.743 124.491 137.374 124.491ZM148.547 126.205C147.601 126.205 146.785 125.996 146.099 125.578C145.417 125.156 144.891 124.568 144.52 123.814C144.153 123.055 143.97 122.173 143.97 121.168C143.97 120.162 144.153 119.276 144.52 118.509C144.891 117.737 145.406 117.136 146.067 116.706C146.732 116.271 147.507 116.054 148.394 116.054C148.905 116.054 149.41 116.139 149.908 116.31C150.407 116.48 150.861 116.757 151.27 117.141C151.679 117.52 152.005 118.023 152.248 118.649C152.491 119.276 152.612 120.047 152.612 120.963V121.602H145.044V120.298H151.078C151.078 119.744 150.967 119.25 150.746 118.815C150.528 118.381 150.217 118.038 149.813 117.786C149.412 117.535 148.939 117.409 148.394 117.409C147.793 117.409 147.273 117.558 146.834 117.857C146.399 118.151 146.065 118.534 145.83 119.007C145.596 119.48 145.479 119.987 145.479 120.528V121.398C145.479 122.139 145.607 122.768 145.862 123.283C146.122 123.795 146.482 124.185 146.943 124.453C147.403 124.717 147.938 124.849 148.547 124.849C148.943 124.849 149.301 124.794 149.621 124.683C149.945 124.568 150.224 124.398 150.458 124.172C150.693 123.942 150.874 123.656 151.002 123.315L152.459 123.724C152.305 124.219 152.048 124.653 151.685 125.028C151.323 125.399 150.876 125.689 150.343 125.898C149.81 126.102 149.212 126.205 148.547 126.205ZM154.907 126V116.182H156.364V117.716H156.492C156.697 117.192 157.027 116.785 157.483 116.495C157.939 116.201 158.487 116.054 159.126 116.054C159.774 116.054 160.313 116.201 160.743 116.495C161.178 116.785 161.516 117.192 161.759 117.716H161.862C162.113 117.209 162.49 116.806 162.993 116.508C163.496 116.205 164.099 116.054 164.802 116.054C165.68 116.054 166.398 116.329 166.956 116.879C167.514 117.424 167.793 118.274 167.793 119.429V126H166.285V119.429C166.285 118.705 166.087 118.187 165.69 117.876C165.294 117.565 164.828 117.409 164.291 117.409C163.6 117.409 163.065 117.618 162.686 118.036C162.307 118.449 162.117 118.973 162.117 119.608V126H160.583V119.276C160.583 118.717 160.402 118.268 160.04 117.927C159.678 117.582 159.211 117.409 158.64 117.409C158.248 117.409 157.881 117.513 157.541 117.722C157.204 117.931 156.931 118.221 156.722 118.592C156.518 118.958 156.416 119.382 156.416 119.864V126H154.907ZM174.668 126.205C173.722 126.205 172.906 125.996 172.22 125.578C171.538 125.156 171.012 124.568 170.641 123.814C170.275 123.055 170.091 122.173 170.091 121.168C170.091 120.162 170.275 119.276 170.641 118.509C171.012 117.737 171.527 117.136 172.188 116.706C172.853 116.271 173.628 116.054 174.515 116.054C175.026 116.054 175.531 116.139 176.03 116.31C176.528 116.48 176.982 116.757 177.391 117.141C177.8 117.52 178.126 118.023 178.369 118.649C178.612 119.276 178.733 120.047 178.733 120.963V121.602H171.165V120.298H177.199C177.199 119.744 177.089 119.25 176.867 118.815C176.65 118.381 176.339 118.038 175.934 117.786C175.533 117.535 175.06 117.409 174.515 117.409C173.914 117.409 173.394 117.558 172.955 117.857C172.52 118.151 172.186 118.534 171.951 119.007C171.717 119.48 171.6 119.987 171.6 120.528V121.398C171.6 122.139 171.728 122.768 171.983 123.283C172.243 123.795 172.603 124.185 173.064 124.453C173.524 124.717 174.059 124.849 174.668 124.849C175.064 124.849 175.422 124.794 175.742 124.683C176.066 124.568 176.345 124.398 176.579 124.172C176.814 123.942 176.995 123.656 177.123 123.315L178.58 123.724C178.427 124.219 178.169 124.653 177.807 125.028C177.444 125.399 176.997 125.689 176.464 125.898C175.932 126.102 175.333 126.205 174.668 126.205ZM182.537 120.094V126H181.028V116.182H182.486V117.716H182.613C182.843 117.217 183.193 116.817 183.662 116.514C184.13 116.207 184.736 116.054 185.477 116.054C186.142 116.054 186.723 116.19 187.222 116.463C187.721 116.732 188.108 117.141 188.385 117.69C188.662 118.236 188.801 118.926 188.801 119.761V126H187.292V119.864C187.292 119.092 187.092 118.491 186.691 118.061C186.291 117.626 185.741 117.409 185.042 117.409C184.561 117.409 184.13 117.513 183.751 117.722C183.376 117.931 183.08 118.236 182.863 118.636C182.645 119.037 182.537 119.523 182.537 120.094ZM195.827 116.182V117.46H190.739V116.182H195.827ZM192.222 113.83H193.731V123.188C193.731 123.614 193.793 123.933 193.916 124.146C194.044 124.355 194.206 124.496 194.402 124.568C194.602 124.636 194.813 124.67 195.035 124.67C195.201 124.67 195.337 124.662 195.444 124.645C195.55 124.624 195.636 124.607 195.699 124.594L196.006 125.949C195.904 125.987 195.761 126.026 195.578 126.064C195.395 126.107 195.163 126.128 194.881 126.128C194.455 126.128 194.038 126.036 193.628 125.853C193.224 125.67 192.887 125.391 192.619 125.016C192.354 124.641 192.222 124.168 192.222 123.597V113.83ZM23.6184 148V134.909H28.0417C29.0687 134.909 29.9082 135.094 30.5602 135.465C31.2164 135.832 31.7022 136.328 32.0176 136.955C32.3329 137.581 32.4906 138.28 32.4906 139.051C32.4906 139.822 32.3329 140.523 32.0176 141.154C31.7065 141.785 31.225 142.288 30.573 142.663C29.921 143.033 29.0858 143.219 28.0673 143.219H24.8968V141.812H28.0162C28.7193 141.812 29.2839 141.691 29.7101 141.448C30.1362 141.205 30.4451 140.877 30.6369 140.464C30.8329 140.046 30.9309 139.575 30.9309 139.051C30.9309 138.527 30.8329 138.058 30.6369 137.645C30.4451 137.232 30.1341 136.908 29.7037 136.673C29.2733 136.435 28.7022 136.315 27.9906 136.315H25.2037V148H23.6184ZM34.8397 148V138.182H36.2971V139.665H36.3993C36.5783 139.179 36.9022 138.785 37.3709 138.482C37.8397 138.18 38.3681 138.028 38.9561 138.028C39.0669 138.028 39.2054 138.031 39.3716 138.035C39.5378 138.039 39.6635 138.045 39.7488 138.054V139.588C39.6976 139.575 39.5804 139.556 39.3972 139.531C39.2182 139.501 39.0286 139.486 38.8283 139.486C38.351 139.486 37.9249 139.586 37.5499 139.786C37.1792 139.982 36.8851 140.255 36.6678 140.604C36.4547 140.95 36.3482 141.344 36.3482 141.787V148H34.8397ZM45.2267 148.205C44.3404 148.205 43.5627 147.994 42.8936 147.572C42.2289 147.15 41.709 146.56 41.334 145.801C40.9632 145.043 40.7779 144.156 40.7779 143.142C40.7779 142.119 40.9632 141.227 41.334 140.464C41.709 139.701 42.2289 139.109 42.8936 138.687C43.5627 138.265 44.3404 138.054 45.2267 138.054C46.1131 138.054 46.8887 138.265 47.5534 138.687C48.2225 139.109 48.7424 139.701 49.1131 140.464C49.4881 141.227 49.6756 142.119 49.6756 143.142C49.6756 144.156 49.4881 145.043 49.1131 145.801C48.7424 146.56 48.2225 147.15 47.5534 147.572C46.8887 147.994 46.1131 148.205 45.2267 148.205ZM45.2267 146.849C45.9 146.849 46.454 146.677 46.8887 146.332C47.3233 145.987 47.6451 145.533 47.8539 144.97C48.0627 144.408 48.1671 143.798 48.1671 143.142C48.1671 142.486 48.0627 141.874 47.8539 141.308C47.6451 140.741 47.3233 140.283 46.8887 139.933C46.454 139.584 45.9 139.409 45.2267 139.409C44.5534 139.409 43.9995 139.584 43.5648 139.933C43.1301 140.283 42.8084 140.741 42.5996 141.308C42.3908 141.874 42.2864 142.486 42.2864 143.142C42.2864 143.798 42.3908 144.408 42.5996 144.97C42.8084 145.533 43.1301 145.987 43.5648 146.332C43.9995 146.677 44.5534 146.849 45.2267 146.849ZM56.3505 138.182V139.46H51.0579V138.182H56.3505ZM52.6431 148V136.827C52.6431 136.264 52.7752 135.795 53.0394 135.42C53.3036 135.045 53.6467 134.764 54.0685 134.577C54.4904 134.389 54.9357 134.295 55.4045 134.295C55.7752 134.295 56.0778 134.325 56.3121 134.385C56.5465 134.445 56.7212 134.5 56.8363 134.551L56.4016 135.855C56.3249 135.83 56.2184 135.798 56.082 135.759C55.9499 135.721 55.7752 135.702 55.5579 135.702C55.0593 135.702 54.6992 135.827 54.4776 136.079C54.2603 136.33 54.1516 136.699 54.1516 137.185V148H52.6431ZM62.1768 148.205C61.2308 148.205 60.4148 147.996 59.7287 147.578C59.0469 147.156 58.5206 146.568 58.1499 145.814C57.7834 145.055 57.6001 144.173 57.6001 143.168C57.6001 142.162 57.7834 141.276 58.1499 140.509C58.5206 139.737 59.0362 139.136 59.6967 138.706C60.3615 138.271 61.1371 138.054 62.0234 138.054C62.5348 138.054 63.0398 138.139 63.5384 138.31C64.0369 138.48 64.4908 138.757 64.8999 139.141C65.3089 139.52 65.6349 140.023 65.8778 140.649C66.1207 141.276 66.2422 142.047 66.2422 142.963V143.602H58.674V142.298H64.7081C64.7081 141.744 64.5973 141.25 64.3757 140.815C64.1584 140.381 63.8473 140.038 63.4425 139.786C63.0419 139.535 62.5689 139.409 62.0234 139.409C61.4226 139.409 60.9027 139.558 60.4638 139.857C60.0291 140.151 59.6946 140.534 59.4602 141.007C59.2259 141.48 59.1087 141.987 59.1087 142.528V143.398C59.1087 144.139 59.2365 144.768 59.4922 145.283C59.7521 145.795 60.1122 146.185 60.5724 146.453C61.0327 146.717 61.5675 146.849 62.1768 146.849C62.5732 146.849 62.9311 146.794 63.2507 146.683C63.5746 146.568 63.8537 146.398 64.0881 146.172C64.3224 145.942 64.5036 145.656 64.6314 145.315L66.0888 145.724C65.9354 146.219 65.6776 146.653 65.3153 147.028C64.9531 147.399 64.5057 147.689 63.973 147.898C63.4403 148.102 62.8416 148.205 62.1768 148.205ZM75.4915 140.381L74.1364 140.764C74.0511 140.538 73.9254 140.319 73.7592 140.106C73.5973 139.888 73.3757 139.71 73.0945 139.569C72.8132 139.428 72.4531 139.358 72.0142 139.358C71.4134 139.358 70.9126 139.496 70.5121 139.773C70.1158 140.046 69.9176 140.393 69.9176 140.815C69.9176 141.19 70.054 141.487 70.3267 141.704C70.5994 141.921 71.0256 142.102 71.6051 142.247L73.0625 142.605C73.9403 142.818 74.5945 143.144 75.0249 143.583C75.4553 144.018 75.6705 144.578 75.6705 145.264C75.6705 145.827 75.5085 146.33 75.1847 146.773C74.8651 147.216 74.4176 147.565 73.8423 147.821C73.267 148.077 72.598 148.205 71.8352 148.205C70.8338 148.205 70.005 147.987 69.3487 147.553C68.6925 147.118 68.277 146.483 68.1023 145.648L69.5341 145.29C69.6705 145.818 69.9283 146.214 70.3075 146.479C70.6911 146.743 71.1918 146.875 71.8097 146.875C72.5128 146.875 73.071 146.726 73.4844 146.428C73.902 146.125 74.1108 145.763 74.1108 145.341C74.1108 145 73.9915 144.714 73.7528 144.484C73.5142 144.25 73.1477 144.075 72.6534 143.96L71.017 143.577C70.1179 143.364 69.4574 143.033 69.0355 142.586C68.6179 142.134 68.4091 141.57 68.4091 140.892C68.4091 140.338 68.5646 139.848 68.8757 139.422C69.1911 138.996 69.6193 138.661 70.1605 138.418C70.706 138.175 71.3239 138.054 72.0142 138.054C72.9858 138.054 73.7486 138.267 74.3026 138.693C74.8608 139.119 75.2571 139.682 75.4915 140.381ZM84.8958 140.381L83.5407 140.764C83.4554 140.538 83.3297 140.319 83.1635 140.106C83.0016 139.888 82.78 139.71 82.4988 139.569C82.2175 139.428 81.8574 139.358 81.4185 139.358C80.8176 139.358 80.3169 139.496 79.9164 139.773C79.5201 140.046 79.3219 140.393 79.3219 140.815C79.3219 141.19 79.4583 141.487 79.731 141.704C80.0037 141.921 80.4299 142.102 81.0094 142.247L82.4668 142.605C83.3446 142.818 83.9988 143.144 84.4292 143.583C84.8596 144.018 85.0748 144.578 85.0748 145.264C85.0748 145.827 84.9128 146.33 84.589 146.773C84.2694 147.216 83.8219 147.565 83.2466 147.821C82.6713 148.077 82.0023 148.205 81.2395 148.205C80.2381 148.205 79.4093 147.987 78.753 147.553C78.0968 147.118 77.6813 146.483 77.5066 145.648L78.9384 145.29C79.0748 145.818 79.3326 146.214 79.7118 146.479C80.0953 146.743 80.5961 146.875 81.214 146.875C81.9171 146.875 82.4753 146.726 82.8887 146.428C83.3063 146.125 83.5151 145.763 83.5151 145.341C83.5151 145 83.3958 144.714 83.1571 144.484C82.9185 144.25 82.552 144.075 82.0577 143.96L80.4213 143.577C79.5222 143.364 78.8617 143.033 78.4398 142.586C78.0222 142.134 77.8134 141.57 77.8134 140.892C77.8134 140.338 77.9689 139.848 78.28 139.422C78.5953 138.996 79.0236 138.661 79.5648 138.418C80.1103 138.175 80.7282 138.054 81.4185 138.054C82.3901 138.054 83.1529 138.267 83.7069 138.693C84.2651 139.119 84.6614 139.682 84.8958 140.381ZM87.3455 148V138.182H88.854V148H87.3455ZM88.1126 136.545C87.8185 136.545 87.565 136.445 87.3519 136.245C87.1431 136.045 87.0387 135.804 87.0387 135.523C87.0387 135.241 87.1431 135.001 87.3519 134.8C87.565 134.6 87.8185 134.5 88.1126 134.5C88.4066 134.5 88.658 134.6 88.8668 134.8C89.0799 135.001 89.1864 135.241 89.1864 135.523C89.1864 135.804 89.0799 136.045 88.8668 136.245C88.658 136.445 88.4066 136.545 88.1126 136.545ZM95.6056 148.205C94.7193 148.205 93.9416 147.994 93.2725 147.572C92.6078 147.15 92.0879 146.56 91.7129 145.801C91.3422 145.043 91.1568 144.156 91.1568 143.142C91.1568 142.119 91.3422 141.227 91.7129 140.464C92.0879 139.701 92.6078 139.109 93.2725 138.687C93.9416 138.265 94.7193 138.054 95.6056 138.054C96.492 138.054 97.2676 138.265 97.9324 138.687C98.6014 139.109 99.1213 139.701 99.492 140.464C99.867 141.227 100.055 142.119 100.055 143.142C100.055 144.156 99.867 145.043 99.492 145.801C99.1213 146.56 98.6014 147.15 97.9324 147.572C97.2676 147.994 96.492 148.205 95.6056 148.205ZM95.6056 146.849C96.2789 146.849 96.8329 146.677 97.2676 146.332C97.7022 145.987 98.024 145.533 98.2328 144.97C98.4416 144.408 98.546 143.798 98.546 143.142C98.546 142.486 98.4416 141.874 98.2328 141.308C98.024 140.741 97.7022 140.283 97.2676 139.933C96.8329 139.584 96.2789 139.409 95.6056 139.409C94.9324 139.409 94.3784 139.584 93.9437 139.933C93.5091 140.283 93.1873 140.741 92.9785 141.308C92.7697 141.874 92.6653 142.486 92.6653 143.142C92.6653 143.798 92.7697 144.408 92.9785 144.97C93.1873 145.533 93.5091 145.987 93.9437 146.332C94.3784 146.677 94.9324 146.849 95.6056 146.849ZM103.866 142.094V148H102.357V138.182H103.815V139.716H103.942C104.173 139.217 104.522 138.817 104.991 138.514C105.46 138.207 106.065 138.054 106.806 138.054C107.471 138.054 108.053 138.19 108.551 138.463C109.05 138.732 109.438 139.141 109.714 139.69C109.991 140.236 110.13 140.926 110.13 141.761V148H108.621V141.864C108.621 141.092 108.421 140.491 108.021 140.061C107.62 139.626 107.07 139.409 106.371 139.409C105.89 139.409 105.46 139.513 105.08 139.722C104.705 139.931 104.409 140.236 104.192 140.636C103.974 141.037 103.866 141.523 103.866 142.094ZM115.776 148.23C115.154 148.23 114.589 148.113 114.082 147.879C113.575 147.64 113.172 147.297 112.874 146.849C112.575 146.398 112.426 145.852 112.426 145.213C112.426 144.651 112.537 144.195 112.759 143.845C112.98 143.491 113.276 143.214 113.647 143.014C114.018 142.814 114.427 142.665 114.874 142.567C115.326 142.464 115.78 142.384 116.236 142.324C116.833 142.247 117.316 142.19 117.687 142.151C118.062 142.109 118.335 142.038 118.505 141.94C118.68 141.842 118.767 141.672 118.767 141.429V141.378C118.767 140.747 118.595 140.257 118.249 139.908C117.909 139.558 117.391 139.384 116.696 139.384C115.976 139.384 115.411 139.541 115.002 139.857C114.593 140.172 114.306 140.509 114.139 140.866L112.708 140.355C112.963 139.759 113.304 139.294 113.73 138.962C114.161 138.625 114.629 138.391 115.137 138.259C115.648 138.122 116.151 138.054 116.645 138.054C116.96 138.054 117.323 138.092 117.732 138.169C118.145 138.241 118.544 138.393 118.927 138.623C119.315 138.853 119.637 139.2 119.892 139.665C120.148 140.129 120.276 140.751 120.276 141.531V148H118.767V146.67H118.691C118.588 146.884 118.418 147.112 118.179 147.354C117.941 147.597 117.623 147.804 117.227 147.974C116.83 148.145 116.347 148.23 115.776 148.23ZM116.006 146.875C116.602 146.875 117.105 146.758 117.514 146.523C117.928 146.289 118.239 145.987 118.448 145.616C118.661 145.245 118.767 144.855 118.767 144.446V143.065C118.703 143.142 118.563 143.212 118.345 143.276C118.132 143.336 117.885 143.389 117.604 143.436C117.327 143.479 117.056 143.517 116.792 143.551C116.532 143.581 116.321 143.607 116.159 143.628C115.767 143.679 115.401 143.762 115.06 143.877C114.723 143.988 114.45 144.156 114.242 144.382C114.037 144.604 113.935 144.906 113.935 145.29C113.935 145.814 114.129 146.21 114.517 146.479C114.909 146.743 115.405 146.875 116.006 146.875ZM124.538 134.909V148H123.029V134.909H124.538ZM132.9 141.455C132.9 139.844 133.109 138.363 133.526 137.012C133.948 135.657 134.549 134.411 135.329 133.273H136.659C136.352 133.695 136.064 134.214 135.796 134.832C135.531 135.446 135.299 136.121 135.099 136.859C134.899 137.592 134.741 138.35 134.626 139.134C134.515 139.918 134.46 140.692 134.46 141.455C134.46 142.469 134.558 143.498 134.754 144.542C134.95 145.586 135.214 146.555 135.546 147.45C135.879 148.345 136.249 149.074 136.659 149.636H135.329C134.549 148.499 133.948 147.254 133.526 145.903C133.109 144.548 132.9 143.065 132.9 141.455ZM139.089 148V134.909H143.512C144.539 134.909 145.379 135.094 146.031 135.465C146.687 135.832 147.173 136.328 147.488 136.955C147.804 137.581 147.961 138.28 147.961 139.051C147.961 139.822 147.804 140.523 147.488 141.154C147.177 141.785 146.696 142.288 146.044 142.663C145.392 143.033 144.556 143.219 143.538 143.219H140.368V141.812H143.487C144.19 141.812 144.755 141.691 145.181 141.448C145.607 141.205 145.916 140.877 146.108 140.464C146.304 140.046 146.402 139.575 146.402 139.051C146.402 138.527 146.304 138.058 146.108 137.645C145.916 137.232 145.605 136.908 145.174 136.673C144.744 136.435 144.173 136.315 143.461 136.315H140.674V148H139.089ZM150.515 134.909H152.407L156.856 145.776H157.009L161.458 134.909H163.35V148H161.867V138.054H161.739L157.648 148H156.217L152.126 138.054H151.998V148H150.515V134.909ZM166.529 148V134.909H170.952C171.979 134.909 172.818 135.094 173.47 135.465C174.127 135.832 174.612 136.328 174.928 136.955C175.243 137.581 175.401 138.28 175.401 139.051C175.401 139.822 175.243 140.523 174.928 141.154C174.617 141.785 174.135 142.288 173.483 142.663C172.831 143.033 171.996 143.219 170.977 143.219H167.807V141.812H170.926C171.629 141.812 172.194 141.691 172.62 141.448C173.046 141.205 173.355 140.877 173.547 140.464C173.743 140.046 173.841 139.575 173.841 139.051C173.841 138.527 173.743 138.058 173.547 137.645C173.355 137.232 173.044 136.908 172.614 136.673C172.183 136.435 171.612 136.315 170.901 136.315H168.114V148H166.529ZM180.971 141.455C180.971 143.065 180.76 144.548 180.339 145.903C179.921 147.254 179.322 148.499 178.542 149.636H177.213C177.52 149.214 177.805 148.695 178.069 148.077C178.338 147.463 178.572 146.79 178.773 146.057C178.973 145.32 179.128 144.559 179.239 143.775C179.354 142.987 179.412 142.213 179.412 141.455C179.412 140.44 179.314 139.411 179.118 138.367C178.922 137.323 178.657 136.354 178.325 135.459C177.993 134.564 177.622 133.835 177.213 133.273H178.542C179.322 134.411 179.921 135.657 180.339 137.012C180.76 138.363 180.971 139.844 180.971 141.455ZM187.135 142.145V137.428H189.526C189.717 137.428 189.926 137.483 190.152 137.594C190.378 137.7 190.57 137.866 190.727 138.092C190.889 138.314 190.97 138.595 190.97 138.936C190.97 139.281 190.887 139.575 190.721 139.818C190.555 140.057 190.352 140.238 190.114 140.362C189.879 140.485 189.658 140.547 189.449 140.547H187.723V139.78H189.129C189.27 139.78 189.421 139.71 189.583 139.569C189.749 139.428 189.832 139.217 189.832 138.936C189.832 138.646 189.749 138.45 189.583 138.348C189.421 138.246 189.278 138.195 189.155 138.195H188.17V142.145H187.135ZM189.986 139.92L191.162 142.145H190.024L188.874 139.92H189.986ZM188.925 144.957C188.217 144.957 187.555 144.825 186.937 144.561C186.319 144.297 185.776 143.93 185.307 143.462C184.838 142.993 184.472 142.45 184.207 141.832C183.943 141.214 183.811 140.551 183.811 139.844C183.811 139.136 183.943 138.474 184.207 137.856C184.472 137.238 184.838 136.695 185.307 136.226C185.776 135.757 186.319 135.391 186.937 135.126C187.555 134.862 188.217 134.73 188.925 134.73C189.632 134.73 190.295 134.862 190.913 135.126C191.531 135.391 192.074 135.757 192.543 136.226C193.011 136.695 193.378 137.238 193.642 137.856C193.906 138.474 194.038 139.136 194.038 139.844C194.038 140.551 193.906 141.214 193.642 141.832C193.378 142.45 193.011 142.993 192.543 143.462C192.074 143.93 191.531 144.297 190.913 144.561C190.295 144.825 189.632 144.957 188.925 144.957ZM188.925 143.73C189.641 143.73 190.293 143.555 190.881 143.206C191.469 142.857 191.938 142.388 192.287 141.8C192.636 141.212 192.811 140.56 192.811 139.844C192.811 139.128 192.636 138.476 192.287 137.888C191.938 137.3 191.469 136.831 190.881 136.482C190.293 136.132 189.641 135.957 188.925 135.957C188.209 135.957 187.557 136.132 186.969 136.482C186.381 136.831 185.912 137.3 185.562 137.888C185.213 138.476 185.038 139.128 185.038 139.844C185.038 140.56 185.213 141.212 185.562 141.8C185.912 142.388 186.381 142.857 186.969 143.206C187.557 143.555 188.209 143.73 188.925 143.73Z" fill="black"/>
</svg>
