<svg width="216" height="196" viewBox="0 0 216 196" fill="none" xmlns="http://www.w3.org/2000/svg">
<rect width="216" height="196" rx="15" fill="#E0E6F1"/>
<path d="M27.9436 126V112.909H32.3669C33.3939 112.909 34.2334 113.094 34.8854 113.465C35.5416 113.832 36.0274 114.328 36.3428 114.955C36.6581 115.581 36.8158 116.28 36.8158 117.051C36.8158 117.822 36.6581 118.523 36.3428 119.154C36.0317 119.785 35.5502 120.288 34.8982 120.663C34.2462 121.033 33.411 121.219 32.3925 121.219H29.222V119.812H32.3414C33.0445 119.812 33.6091 119.691 34.0352 119.448C34.4614 119.205 34.7703 118.877 34.9621 118.464C35.1581 118.046 35.2561 117.575 35.2561 117.051C35.2561 116.527 35.1581 116.058 34.9621 115.645C34.7703 115.232 34.4593 114.908 34.0289 114.673C33.5985 114.435 33.0274 114.315 32.3158 114.315H29.5289V126H27.9436ZM39.1649 126V116.182H40.6222V117.665H40.7245C40.9035 117.179 41.2274 116.785 41.6961 116.482C42.1649 116.18 42.6933 116.028 43.2813 116.028C43.3921 116.028 43.5306 116.031 43.6968 116.035C43.863 116.039 43.9887 116.045 44.074 116.054V117.588C44.0228 117.575 43.9056 117.556 43.7224 117.531C43.5434 117.501 43.3538 117.486 43.1535 117.486C42.6762 117.486 42.2501 117.586 41.8751 117.786C41.5044 117.982 41.2103 118.255 40.993 118.604C40.7799 118.95 40.6734 119.344 40.6734 119.787V126H39.1649ZM49.5519 126.205C48.6656 126.205 47.8879 125.994 47.2188 125.572C46.5541 125.15 46.0342 124.56 45.6592 123.801C45.2884 123.043 45.1031 122.156 45.1031 121.142C45.1031 120.119 45.2884 119.227 45.6592 118.464C46.0342 117.701 46.5541 117.109 47.2188 116.687C47.8879 116.265 48.6656 116.054 49.5519 116.054C50.4383 116.054 51.2139 116.265 51.8786 116.687C52.5477 117.109 53.0676 117.701 53.4383 118.464C53.8133 119.227 54.0008 120.119 54.0008 121.142C54.0008 122.156 53.8133 123.043 53.4383 123.801C53.0676 124.56 52.5477 125.15 51.8786 125.572C51.2139 125.994 50.4383 126.205 49.5519 126.205ZM49.5519 124.849C50.2252 124.849 50.7792 124.677 51.2139 124.332C51.6485 123.987 51.9703 123.533 52.1791 122.97C52.3879 122.408 52.4923 121.798 52.4923 121.142C52.4923 120.486 52.3879 119.874 52.1791 119.308C51.9703 118.741 51.6485 118.283 51.2139 117.933C50.7792 117.584 50.2252 117.409 49.5519 117.409C48.8786 117.409 48.3247 117.584 47.89 117.933C47.4553 118.283 47.1336 118.741 46.9248 119.308C46.716 119.874 46.6116 120.486 46.6116 121.142C46.6116 121.798 46.716 122.408 46.9248 122.97C47.1336 123.533 47.4553 123.987 47.89 124.332C48.3247 124.677 48.8786 124.849 49.5519 124.849ZM60.6757 116.182V117.46H55.3831V116.182H60.6757ZM56.9683 126V114.827C56.9683 114.264 57.1004 113.795 57.3646 113.42C57.6288 113.045 57.9719 112.764 58.3937 112.577C58.8156 112.389 59.2609 112.295 59.7297 112.295C60.1004 112.295 60.403 112.325 60.6373 112.385C60.8717 112.445 61.0464 112.5 61.1615 112.551L60.7268 113.855C60.6501 113.83 60.5436 113.798 60.4072 113.759C60.2751 113.721 60.1004 113.702 59.8831 113.702C59.3845 113.702 59.0244 113.827 58.8028 114.079C58.5855 114.33 58.4768 114.699 58.4768 115.185V126H56.9683ZM66.502 126.205C65.556 126.205 64.74 125.996 64.0539 125.578C63.3721 125.156 62.8458 124.568 62.4751 123.814C62.1086 123.055 61.9253 122.173 61.9253 121.168C61.9253 120.162 62.1086 119.276 62.4751 118.509C62.8458 117.737 63.3614 117.136 64.0219 116.706C64.6867 116.271 65.4623 116.054 66.3486 116.054C66.86 116.054 67.365 116.139 67.8635 116.31C68.3621 116.48 68.816 116.757 69.2251 117.141C69.6341 117.52 69.9601 118.023 70.203 118.649C70.4459 119.276 70.5674 120.047 70.5674 120.963V121.602H62.9992V120.298H69.0333C69.0333 119.744 68.9225 119.25 68.7009 118.815C68.4836 118.381 68.1725 118.038 67.7677 117.786C67.3671 117.535 66.8941 117.409 66.3486 117.409C65.7478 117.409 65.2279 117.558 64.789 117.857C64.3543 118.151 64.0198 118.534 63.7854 119.007C63.551 119.48 63.4339 119.987 63.4339 120.528V121.398C63.4339 122.139 63.5617 122.768 63.8174 123.283C64.0773 123.795 64.4374 124.185 64.8976 124.453C65.3579 124.717 65.8927 124.849 66.502 124.849C66.8983 124.849 67.2563 124.794 67.5759 124.683C67.8998 124.568 68.1789 124.398 68.4133 124.172C68.6476 123.942 68.8287 123.656 68.9566 123.315L70.414 123.724C70.2606 124.219 70.0028 124.653 69.6405 125.028C69.2783 125.399 68.8309 125.689 68.2982 125.898C67.7655 126.102 67.1668 126.205 66.502 126.205ZM79.8167 118.381L78.4616 118.764C78.3763 118.538 78.2506 118.319 78.0844 118.106C77.9225 117.888 77.7009 117.71 77.4197 117.569C77.1384 117.428 76.7783 117.358 76.3394 117.358C75.7385 117.358 75.2378 117.496 74.8373 117.773C74.441 118.046 74.2428 118.393 74.2428 118.815C74.2428 119.19 74.3792 119.487 74.6519 119.704C74.9246 119.921 75.3508 120.102 75.9303 120.247L77.3877 120.605C78.2655 120.818 78.9197 121.144 79.3501 121.583C79.7805 122.018 79.9957 122.578 79.9957 123.264C79.9957 123.827 79.8337 124.33 79.5099 124.773C79.1903 125.216 78.7428 125.565 78.1675 125.821C77.5922 126.077 76.9232 126.205 76.1604 126.205C75.159 126.205 74.3302 125.987 73.6739 125.553C73.0177 125.118 72.6022 124.483 72.4275 123.648L73.8593 123.29C73.9956 123.818 74.2535 124.214 74.6327 124.479C75.0162 124.743 75.517 124.875 76.1349 124.875C76.838 124.875 77.3962 124.726 77.8096 124.428C78.2272 124.125 78.436 123.763 78.436 123.341C78.436 123 78.3167 122.714 78.078 122.484C77.8394 122.25 77.4729 122.075 76.9786 121.96L75.3422 121.577C74.4431 121.364 73.7826 121.033 73.3607 120.586C72.9431 120.134 72.7343 119.57 72.7343 118.892C72.7343 118.338 72.8898 117.848 73.2009 117.422C73.5162 116.996 73.9445 116.661 74.4857 116.418C75.0312 116.175 75.6491 116.054 76.3394 116.054C77.311 116.054 78.0738 116.267 78.6278 116.693C79.186 117.119 79.5823 117.682 79.8167 118.381ZM89.221 118.381L87.8659 118.764C87.7806 118.538 87.6549 118.319 87.4887 118.106C87.3268 117.888 87.1052 117.71 86.824 117.569C86.5427 117.428 86.1826 117.358 85.7437 117.358C85.1428 117.358 84.6421 117.496 84.2416 117.773C83.8453 118.046 83.6471 118.393 83.6471 118.815C83.6471 119.19 83.7835 119.487 84.0562 119.704C84.3289 119.921 84.7551 120.102 85.3346 120.247L86.792 120.605C87.6698 120.818 88.324 121.144 88.7544 121.583C89.1847 122.018 89.3999 122.578 89.3999 123.264C89.3999 123.827 89.238 124.33 88.9142 124.773C88.5945 125.216 88.1471 125.565 87.5718 125.821C86.9965 126.077 86.3275 126.205 85.5647 126.205C84.5633 126.205 83.7345 125.987 83.0782 125.553C82.422 125.118 82.0065 124.483 81.8318 123.648L83.2636 123.29C83.3999 123.818 83.6578 124.214 84.037 124.479C84.4205 124.743 84.9213 124.875 85.5392 124.875C86.2423 124.875 86.8005 124.726 87.2139 124.428C87.6315 124.125 87.8403 123.763 87.8403 123.341C87.8403 123 87.721 122.714 87.4823 122.484C87.2437 122.25 86.8772 122.075 86.3829 121.96L84.7465 121.577C83.8474 121.364 83.1869 121.033 82.765 120.586C82.3474 120.134 82.1386 119.57 82.1386 118.892C82.1386 118.338 82.2941 117.848 82.6052 117.422C82.9205 116.996 83.3488 116.661 83.89 116.418C84.4355 116.175 85.0534 116.054 85.7437 116.054C86.7153 116.054 87.4781 116.267 88.032 116.693C88.5903 117.119 88.9866 117.682 89.221 118.381ZM91.6707 126V116.182H93.1792V126H91.6707ZM92.4378 114.545C92.1437 114.545 91.8902 114.445 91.6771 114.245C91.4683 114.045 91.3639 113.804 91.3639 113.523C91.3639 113.241 91.4683 113.001 91.6771 112.8C91.8902 112.6 92.1437 112.5 92.4378 112.5C92.7318 112.5 92.9832 112.6 93.192 112.8C93.4051 113.001 93.5116 113.241 93.5116 113.523C93.5116 113.804 93.4051 114.045 93.192 114.245C92.9832 114.445 92.7318 114.545 92.4378 114.545ZM99.9308 126.205C99.0445 126.205 98.2668 125.994 97.5977 125.572C96.933 125.15 96.4131 124.56 96.0381 123.801C95.6673 123.043 95.482 122.156 95.482 121.142C95.482 120.119 95.6673 119.227 96.0381 118.464C96.4131 117.701 96.933 117.109 97.5977 116.687C98.2668 116.265 99.0445 116.054 99.9308 116.054C100.817 116.054 101.593 116.265 102.258 116.687C102.927 117.109 103.446 117.701 103.817 118.464C104.192 119.227 104.38 120.119 104.38 121.142C104.38 122.156 104.192 123.043 103.817 123.801C103.446 124.56 102.927 125.15 102.258 125.572C101.593 125.994 100.817 126.205 99.9308 126.205ZM99.9308 124.849C100.604 124.849 101.158 124.677 101.593 124.332C102.027 123.987 102.349 123.533 102.558 122.97C102.767 122.408 102.871 121.798 102.871 121.142C102.871 120.486 102.767 119.874 102.558 119.308C102.349 118.741 102.027 118.283 101.593 117.933C101.158 117.584 100.604 117.409 99.9308 117.409C99.2575 117.409 98.7036 117.584 98.2689 117.933C97.8343 118.283 97.5125 118.741 97.3037 119.308C97.0949 119.874 96.9905 120.486 96.9905 121.142C96.9905 121.798 97.0949 122.408 97.3037 122.97C97.5125 123.533 97.8343 123.987 98.2689 124.332C98.7036 124.677 99.2575 124.849 99.9308 124.849ZM108.191 120.094V126H106.682V116.182H108.14V117.716H108.268C108.498 117.217 108.847 116.817 109.316 116.514C109.785 116.207 110.39 116.054 111.131 116.054C111.796 116.054 112.378 116.19 112.876 116.463C113.375 116.732 113.763 117.141 114.04 117.69C114.317 118.236 114.455 118.926 114.455 119.761V126H112.947V119.864C112.947 119.092 112.746 118.491 112.346 118.061C111.945 117.626 111.396 117.409 110.697 117.409C110.215 117.409 109.785 117.513 109.405 117.722C109.03 117.931 108.734 118.236 108.517 118.636C108.3 119.037 108.191 119.523 108.191 120.094ZM120.101 126.23C119.479 126.23 118.914 126.113 118.407 125.879C117.9 125.64 117.497 125.297 117.199 124.849C116.901 124.398 116.752 123.852 116.752 123.213C116.752 122.651 116.862 122.195 117.084 121.845C117.305 121.491 117.602 121.214 117.972 121.014C118.343 120.814 118.752 120.665 119.2 120.567C119.651 120.464 120.105 120.384 120.561 120.324C121.158 120.247 121.641 120.19 122.012 120.151C122.387 120.109 122.66 120.038 122.83 119.94C123.005 119.842 123.092 119.672 123.092 119.429V119.378C123.092 118.747 122.92 118.257 122.575 117.908C122.234 117.558 121.716 117.384 121.021 117.384C120.301 117.384 119.737 117.541 119.328 117.857C118.918 118.172 118.631 118.509 118.465 118.866L117.033 118.355C117.288 117.759 117.629 117.294 118.055 116.962C118.486 116.625 118.955 116.391 119.462 116.259C119.973 116.122 120.476 116.054 120.97 116.054C121.286 116.054 121.648 116.092 122.057 116.169C122.47 116.241 122.869 116.393 123.252 116.623C123.64 116.853 123.962 117.2 124.217 117.665C124.473 118.129 124.601 118.751 124.601 119.531V126H123.092V124.67H123.016C122.913 124.884 122.743 125.112 122.504 125.354C122.266 125.597 121.948 125.804 121.552 125.974C121.156 126.145 120.672 126.23 120.101 126.23ZM120.331 124.875C120.928 124.875 121.43 124.758 121.84 124.523C122.253 124.289 122.564 123.987 122.773 123.616C122.986 123.245 123.092 122.855 123.092 122.446V121.065C123.028 121.142 122.888 121.212 122.671 121.276C122.457 121.336 122.21 121.389 121.929 121.436C121.652 121.479 121.381 121.517 121.117 121.551C120.857 121.581 120.646 121.607 120.484 121.628C120.092 121.679 119.726 121.762 119.385 121.877C119.048 121.988 118.776 122.156 118.567 122.382C118.362 122.604 118.26 122.906 118.26 123.29C118.26 123.814 118.454 124.21 118.842 124.479C119.234 124.743 119.73 124.875 120.331 124.875ZM128.863 112.909V126H127.354V112.909H128.863ZM144.052 116.182C143.975 115.534 143.664 115.031 143.119 114.673C142.573 114.315 141.904 114.136 141.112 114.136C140.532 114.136 140.025 114.23 139.59 114.418C139.16 114.605 138.823 114.863 138.58 115.191C138.342 115.519 138.222 115.892 138.222 116.31C138.222 116.659 138.305 116.96 138.472 117.211C138.642 117.458 138.859 117.665 139.124 117.831C139.388 117.993 139.665 118.127 139.955 118.234C140.244 118.336 140.511 118.419 140.754 118.483L142.083 118.841C142.424 118.93 142.803 119.054 143.221 119.212C143.643 119.369 144.046 119.585 144.429 119.857C144.817 120.126 145.136 120.471 145.388 120.893C145.639 121.315 145.765 121.832 145.765 122.446C145.765 123.153 145.58 123.793 145.209 124.364C144.842 124.935 144.305 125.388 143.598 125.725C142.895 126.062 142.041 126.23 141.035 126.23C140.097 126.23 139.286 126.079 138.6 125.776C137.918 125.474 137.381 125.052 136.989 124.511C136.601 123.969 136.381 123.341 136.33 122.625H137.967C138.009 123.119 138.176 123.528 138.465 123.852C138.759 124.172 139.13 124.411 139.578 124.568C140.029 124.722 140.515 124.798 141.035 124.798C141.64 124.798 142.183 124.7 142.665 124.504C143.146 124.304 143.528 124.027 143.809 123.673C144.09 123.315 144.231 122.898 144.231 122.42C144.231 121.986 144.109 121.632 143.867 121.359C143.624 121.087 143.304 120.865 142.908 120.695C142.511 120.524 142.083 120.375 141.623 120.247L140.012 119.787C138.989 119.493 138.18 119.073 137.583 118.528C136.987 117.982 136.688 117.268 136.688 116.386C136.688 115.653 136.886 115.014 137.283 114.469C137.683 113.919 138.22 113.493 138.894 113.19C139.571 112.884 140.328 112.73 141.163 112.73C142.006 112.73 142.756 112.881 143.413 113.184C144.069 113.482 144.589 113.891 144.972 114.411C145.36 114.931 145.565 115.521 145.586 116.182H144.052ZM152.155 126.205C151.235 126.205 150.442 125.987 149.778 125.553C149.113 125.118 148.601 124.519 148.244 123.756C147.886 122.994 147.707 122.122 147.707 121.142C147.707 120.145 147.89 119.265 148.256 118.502C148.627 117.735 149.143 117.136 149.803 116.706C150.468 116.271 151.244 116.054 152.13 116.054C152.82 116.054 153.442 116.182 153.996 116.438C154.55 116.693 155.004 117.051 155.358 117.511C155.712 117.972 155.931 118.509 156.016 119.122H154.508C154.393 118.675 154.137 118.278 153.741 117.933C153.349 117.584 152.82 117.409 152.155 117.409C151.567 117.409 151.052 117.562 150.609 117.869C150.17 118.172 149.827 118.6 149.579 119.154C149.337 119.704 149.215 120.349 149.215 121.091C149.215 121.849 149.334 122.51 149.573 123.072C149.816 123.635 150.157 124.072 150.596 124.383C151.039 124.694 151.559 124.849 152.155 124.849C152.547 124.849 152.903 124.781 153.223 124.645C153.543 124.509 153.813 124.312 154.035 124.057C154.256 123.801 154.414 123.494 154.508 123.136H156.016C155.931 123.716 155.72 124.238 155.383 124.702C155.051 125.163 154.61 125.529 154.06 125.802C153.515 126.07 152.88 126.205 152.155 126.205ZM158.222 126V116.182H159.679V117.665H159.781C159.96 117.179 160.284 116.785 160.753 116.482C161.222 116.18 161.75 116.028 162.338 116.028C162.449 116.028 162.587 116.031 162.753 116.035C162.92 116.039 163.045 116.045 163.131 116.054V117.588C163.079 117.575 162.962 117.556 162.779 117.531C162.6 117.501 162.41 117.486 162.21 117.486C161.733 117.486 161.307 117.586 160.932 117.786C160.561 117.982 160.267 118.255 160.05 118.604C159.837 118.95 159.73 119.344 159.73 119.787V126H158.222ZM171.106 121.986V116.182H172.615V126H171.106V124.338H171.004C170.774 124.837 170.416 125.261 169.93 125.61C169.444 125.955 168.831 126.128 168.089 126.128C167.476 126.128 166.93 125.994 166.453 125.725C165.976 125.452 165.601 125.043 165.328 124.498C165.055 123.948 164.919 123.256 164.919 122.42V116.182H166.427V122.318C166.427 123.034 166.628 123.605 167.028 124.031C167.433 124.457 167.949 124.67 168.575 124.67C168.95 124.67 169.331 124.575 169.719 124.383C170.111 124.191 170.439 123.897 170.704 123.501C170.972 123.104 171.106 122.599 171.106 121.986ZM175.378 126V116.182H176.835V117.716H176.963C177.168 117.192 177.498 116.785 177.954 116.495C178.41 116.201 178.957 116.054 179.597 116.054C180.244 116.054 180.783 116.201 181.214 116.495C181.648 116.785 181.987 117.192 182.23 117.716H182.332C182.584 117.209 182.961 116.806 183.464 116.508C183.967 116.205 184.57 116.054 185.273 116.054C186.15 116.054 186.869 116.329 187.427 116.879C187.985 117.424 188.264 118.274 188.264 119.429V126H186.756V119.429C186.756 118.705 186.557 118.187 186.161 117.876C185.765 117.565 185.298 117.409 184.761 117.409C184.071 117.409 183.536 117.618 183.157 118.036C182.778 118.449 182.588 118.973 182.588 119.608V126H181.054V119.276C181.054 118.717 180.873 118.268 180.511 117.927C180.148 117.582 179.682 117.409 179.111 117.409C178.719 117.409 178.352 117.513 178.011 117.722C177.675 117.931 177.402 118.221 177.193 118.592C176.989 118.958 176.886 119.382 176.886 119.864V126H175.378ZM36.1878 134.909H38.0798L42.5287 145.776H42.6821L47.1309 134.909H49.023V148H47.54V138.054H47.4122L43.3213 148H41.8895L37.7986 138.054H37.6707V148H36.1878V134.909ZM54.8861 148.23C54.2639 148.23 53.6993 148.113 53.1922 147.879C52.6851 147.64 52.2824 147.297 51.9841 146.849C51.6858 146.398 51.5367 145.852 51.5367 145.213C51.5367 144.651 51.6475 144.195 51.8691 143.845C52.0906 143.491 52.3868 143.214 52.7575 143.014C53.1283 142.814 53.5374 142.665 53.9848 142.567C54.4365 142.464 54.8904 142.384 55.3463 142.324C55.9429 142.247 56.4266 142.19 56.7973 142.151C57.1723 142.109 57.445 142.038 57.6155 141.94C57.7902 141.842 57.8776 141.672 57.8776 141.429V141.378C57.8776 140.747 57.705 140.257 57.3598 139.908C57.0189 139.558 56.5012 139.384 55.8066 139.384C55.0864 139.384 54.5218 139.541 54.1127 139.857C53.7036 140.172 53.4159 140.509 53.2497 140.866L51.8179 140.355C52.0736 139.759 52.4145 139.294 52.8406 138.962C53.271 138.625 53.7398 138.391 54.2469 138.259C54.7583 138.122 55.2611 138.054 55.7554 138.054C56.0708 138.054 56.433 138.092 56.8421 138.169C57.2554 138.241 57.6539 138.393 58.0374 138.623C58.4252 138.853 58.7469 139.2 59.0026 139.665C59.2583 140.129 59.3861 140.751 59.3861 141.531V148H57.8776V146.67H57.8009C57.6986 146.884 57.5281 147.112 57.2895 147.354C57.0509 147.597 56.7334 147.804 56.3371 147.974C55.9408 148.145 55.4571 148.23 54.8861 148.23ZM55.1162 146.875C55.7128 146.875 56.2156 146.758 56.6247 146.523C57.0381 146.289 57.3492 145.987 57.558 145.616C57.771 145.245 57.8776 144.855 57.8776 144.446V143.065C57.8137 143.142 57.673 143.212 57.4557 143.276C57.2426 143.336 56.9955 143.389 56.7142 143.436C56.4372 143.479 56.1666 143.517 55.9024 143.551C55.6425 143.581 55.4316 143.607 55.2696 143.628C54.8776 143.679 54.5111 143.762 54.1702 143.877C53.8335 143.988 53.5608 144.156 53.352 144.382C53.1475 144.604 53.0452 144.906 53.0452 145.29C53.0452 145.814 53.2391 146.21 53.6269 146.479C54.0189 146.743 54.5154 146.875 55.1162 146.875ZM69.094 140.381L67.7389 140.764C67.6537 140.538 67.528 140.319 67.3618 140.106C67.1998 139.888 66.9782 139.71 66.697 139.569C66.4157 139.428 66.0557 139.358 65.6167 139.358C65.0159 139.358 64.5152 139.496 64.1146 139.773C63.7183 140.046 63.5202 140.393 63.5202 140.815C63.5202 141.19 63.6565 141.487 63.9292 141.704C64.202 141.921 64.6281 142.102 65.2077 142.247L66.665 142.605C67.5429 142.818 68.197 143.144 68.6274 143.583C69.0578 144.018 69.273 144.578 69.273 145.264C69.273 145.827 69.1111 146.33 68.7872 146.773C68.4676 147.216 68.0202 147.565 67.4449 147.821C66.8696 148.077 66.2006 148.205 65.4378 148.205C64.4363 148.205 63.6075 147.987 62.9513 147.553C62.295 147.118 61.8795 146.483 61.7048 145.648L63.1366 145.29C63.273 145.818 63.5308 146.214 63.9101 146.479C64.2936 146.743 64.7943 146.875 65.4122 146.875C66.1153 146.875 66.6736 146.726 67.0869 146.428C67.5045 146.125 67.7133 145.763 67.7133 145.341C67.7133 145 67.594 144.714 67.3554 144.484C67.1167 144.25 66.7503 144.075 66.2559 143.96L64.6196 143.577C63.7204 143.364 63.0599 143.033 62.6381 142.586C62.2204 142.134 62.0116 141.57 62.0116 140.892C62.0116 140.338 62.1672 139.848 62.4782 139.422C62.7936 138.996 63.2219 138.661 63.7631 138.418C64.3085 138.175 64.9264 138.054 65.6167 138.054C66.5883 138.054 67.3511 138.267 67.9051 138.693C68.4633 139.119 68.8596 139.682 69.094 140.381ZM75.8137 138.182V139.46H70.7256V138.182H75.8137ZM72.2085 135.83H73.7171V145.188C73.7171 145.614 73.7789 145.933 73.9024 146.146C74.0303 146.355 74.1922 146.496 74.3882 146.568C74.5885 146.636 74.7994 146.67 75.021 146.67C75.1872 146.67 75.3236 146.662 75.4301 146.645C75.5367 146.624 75.6219 146.607 75.6858 146.594L75.9926 147.949C75.8904 147.987 75.7476 148.026 75.5644 148.064C75.3811 148.107 75.1489 148.128 74.8676 148.128C74.4415 148.128 74.0239 148.036 73.6148 147.853C73.21 147.67 72.8733 147.391 72.6048 147.016C72.3406 146.641 72.2085 146.168 72.2085 145.597V135.83ZM82.0938 148.205C81.1478 148.205 80.3318 147.996 79.6457 147.578C78.9639 147.156 78.4376 146.568 78.0669 145.814C77.7004 145.055 77.5171 144.173 77.5171 143.168C77.5171 142.162 77.7004 141.276 78.0669 140.509C78.4376 139.737 78.9532 139.136 79.6137 138.706C80.2785 138.271 81.0541 138.054 81.9404 138.054C82.4518 138.054 82.9568 138.139 83.4553 138.31C83.9539 138.48 84.4078 138.757 84.8169 139.141C85.2259 139.52 85.5519 140.023 85.7948 140.649C86.0377 141.276 86.1592 142.047 86.1592 142.963V143.602H78.591V142.298H84.6251C84.6251 141.744 84.5143 141.25 84.2927 140.815C84.0754 140.381 83.7643 140.038 83.3595 139.786C82.9589 139.535 82.4859 139.409 81.9404 139.409C81.3396 139.409 80.8197 139.558 80.3808 139.857C79.9461 140.151 79.6116 140.534 79.3772 141.007C79.1428 141.48 79.0257 141.987 79.0257 142.528V143.398C79.0257 144.139 79.1535 144.768 79.4092 145.283C79.6691 145.795 80.0292 146.185 80.4894 146.453C80.9497 146.717 81.4845 146.849 82.0938 146.849C82.4901 146.849 82.8481 146.794 83.1677 146.683C83.4916 146.568 83.7707 146.398 84.0051 146.172C84.2394 145.942 84.4205 145.656 84.5484 145.315L86.0058 145.724C85.8524 146.219 85.5945 146.653 85.2323 147.028C84.8701 147.399 84.4227 147.689 83.89 147.898C83.3573 148.102 82.7586 148.205 82.0938 148.205ZM88.4539 148V138.182H89.9113V139.665H90.0136C90.1926 139.179 90.5164 138.785 90.9852 138.482C91.4539 138.18 91.9823 138.028 92.5704 138.028C92.6812 138.028 92.8197 138.031 92.9859 138.035C93.1521 138.039 93.2778 138.045 93.363 138.054V139.588C93.3119 139.575 93.1947 139.556 93.0115 139.531C92.8325 139.501 92.6428 139.486 92.4426 139.486C91.9653 139.486 91.5392 139.586 91.1642 139.786C90.7934 139.982 90.4994 140.255 90.282 140.604C90.069 140.95 89.9624 141.344 89.9624 141.787V148H88.4539ZM101.224 139.614L99.1398 134.909H99.9836L101.441 138.361L102.898 134.909H103.742L101.658 139.614H101.224ZM98.9864 139.614V134.909H99.8046V139.614H98.9864ZM103.077 139.614V134.909H103.896V139.614H103.077ZM95.9182 139.614V135.318H96.7364V139.614H95.9182ZM94.4864 135.625V134.909H98.1682V135.625H94.4864ZM112.955 134.909V148H111.369V134.909H112.955ZM121.528 141.455C121.528 139.844 121.737 138.363 122.154 137.012C122.576 135.657 123.177 134.411 123.957 133.273H125.286C124.98 133.695 124.692 134.214 124.424 134.832C124.159 135.446 123.927 136.121 123.727 136.859C123.527 137.592 123.369 138.35 123.254 139.134C123.143 139.918 123.088 140.692 123.088 141.455C123.088 142.469 123.186 143.498 123.382 144.542C123.578 145.586 123.842 146.555 124.174 147.45C124.507 148.345 124.877 149.074 125.286 149.636H123.957C123.177 148.499 122.576 147.254 122.154 145.903C121.737 144.548 121.528 143.065 121.528 141.455ZM127.717 148V134.909H132.14C133.167 134.909 134.007 135.094 134.659 135.465C135.315 135.832 135.801 136.328 136.116 136.955C136.432 137.581 136.589 138.28 136.589 139.051C136.589 139.822 136.432 140.523 136.116 141.154C135.805 141.785 135.324 142.288 134.672 142.663C134.02 143.033 133.184 143.219 132.166 143.219H128.995V141.812H132.115C132.818 141.812 133.383 141.691 133.809 141.448C134.235 141.205 134.544 140.877 134.736 140.464C134.932 140.046 135.03 139.575 135.03 139.051C135.03 138.527 134.932 138.058 134.736 137.645C134.544 137.232 134.233 136.908 133.802 136.673C133.372 136.435 132.801 136.315 132.089 136.315H129.302V148H127.717ZM146.302 138.182C146.225 137.534 145.914 137.031 145.369 136.673C144.823 136.315 144.154 136.136 143.362 136.136C142.782 136.136 142.275 136.23 141.84 136.418C141.41 136.605 141.073 136.863 140.83 137.191C140.592 137.519 140.472 137.892 140.472 138.31C140.472 138.659 140.555 138.96 140.722 139.211C140.892 139.458 141.109 139.665 141.374 139.831C141.638 139.993 141.915 140.127 142.205 140.234C142.494 140.336 142.761 140.419 143.004 140.483L144.333 140.841C144.674 140.93 145.053 141.054 145.471 141.212C145.893 141.369 146.296 141.585 146.679 141.857C147.067 142.126 147.386 142.471 147.638 142.893C147.889 143.315 148.015 143.832 148.015 144.446C148.015 145.153 147.83 145.793 147.459 146.364C147.092 146.935 146.555 147.388 145.848 147.725C145.145 148.062 144.291 148.23 143.285 148.23C142.347 148.23 141.536 148.079 140.85 147.776C140.168 147.474 139.631 147.052 139.239 146.511C138.851 145.969 138.631 145.341 138.58 144.625H140.217C140.259 145.119 140.426 145.528 140.715 145.852C141.009 146.172 141.38 146.411 141.828 146.568C142.279 146.722 142.765 146.798 143.285 146.798C143.89 146.798 144.433 146.7 144.915 146.504C145.396 146.304 145.778 146.027 146.059 145.673C146.34 145.315 146.481 144.898 146.481 144.42C146.481 143.986 146.359 143.632 146.117 143.359C145.874 143.087 145.554 142.865 145.158 142.695C144.761 142.524 144.333 142.375 143.873 142.247L142.262 141.787C141.239 141.493 140.43 141.073 139.833 140.528C139.237 139.982 138.938 139.268 138.938 138.386C138.938 137.653 139.136 137.014 139.533 136.469C139.933 135.919 140.47 135.493 141.144 135.19C141.821 134.884 142.578 134.73 143.413 134.73C144.256 134.73 145.006 134.881 145.663 135.184C146.319 135.482 146.839 135.891 147.222 136.411C147.61 136.931 147.815 137.521 147.836 138.182H146.302ZM150.621 134.909H152.513L156.962 145.776H157.116L161.565 134.909H163.457V148H161.974V138.054H161.846L157.755 148H156.323L152.232 138.054H152.104V148H150.621V134.909ZM173.283 134.909V148H171.698V134.909H173.283ZM179.478 141.455C179.478 143.065 179.267 144.548 178.845 145.903C178.428 147.254 177.829 148.499 177.049 149.636H175.72C176.027 149.214 176.312 148.695 176.576 148.077C176.845 147.463 177.079 146.79 177.279 146.057C177.48 145.32 177.635 144.559 177.746 143.775C177.861 142.987 177.919 142.213 177.919 141.455C177.919 140.44 177.821 139.411 177.625 138.367C177.429 137.323 177.164 136.354 176.832 135.459C176.5 134.564 176.129 133.835 175.72 133.273H177.049C177.829 134.411 178.428 135.657 178.845 137.012C179.267 138.363 179.478 139.844 179.478 141.455Z" fill="black"/>
<path d="M86.7789 44.0575C86.1776 43.21 85.1076 42.8075 84.0151 42.8075C82.7226 42.8075 81.4301 43.3875 81.4301 44.8362C81.4301 48.0012 88.9188 46.1962 88.9188 51.8137C88.9188 55.2012 86.2439 56.8512 83.1464 56.8512C81.1839 56.8512 79.2713 56.2487 77.9751 54.7112L80.0926 52.66C80.4359 53.1725 80.9013 53.5916 81.4467 53.8796C81.9922 54.1676 82.6008 54.3155 83.2176 54.31C84.5101 54.31 85.9813 53.5962 85.9813 52.1475C85.9813 48.6925 78.4926 50.6762 78.4926 45.0362C78.4926 41.7862 81.3901 40.2662 84.3101 40.2662C85.9601 40.2662 87.6088 40.735 88.8351 41.8912L86.7789 44.0575Z" fill="#405870"/>
<path d="M98.46 48.9613C97.835 48.315 97.145 47.8913 96.4313 47.8913C94.47 47.8913 93.2888 49.43 93.2888 51.1013C93.2888 52.7725 94.47 54.3113 96.4313 54.3113C96.8309 54.3173 97.2264 54.2301 97.5864 54.0565C97.9464 53.8829 98.2609 53.6277 98.505 53.3113L100.288 55.225C99.195 56.3175 97.3675 56.7188 96.4313 56.7188C93.1988 56.7188 90.6138 54.4688 90.6138 51.1013C90.6138 47.7338 93.1988 45.4838 96.4313 45.4838C97.7913 45.4838 99.285 45.9738 100.306 47.1088L98.46 48.9613Z" fill="#405870"/>
<path d="M102.16 45.75H104.835V47.4437H104.875C105.455 46.2187 106.636 45.4825 108.04 45.4825C108.365 45.4893 108.688 45.5419 108.999 45.6387V48.225C108.578 48.1049 108.144 48.0373 107.706 48.0237C105.188 48.0237 104.831 50.1412 104.831 50.7212V56.45H102.156L102.16 45.75Z" fill="#405870"/>
<path d="M120.75 56.4513H118.21V54.735H118.165C117.675 55.805 116.672 56.7188 114.889 56.7188C112.014 56.7188 110.987 54.69 110.987 52.505V45.75H113.662V51.1663C113.662 52.3488 113.751 54.31 115.624 54.31C117.385 54.31 118.076 53.0175 118.076 51.59V45.75H120.75V56.4513Z" fill="#405870"/>
<path d="M123.315 45.75H125.856V47.4225H125.901C126.369 46.4225 127.394 45.4825 129.177 45.4825C130.826 45.4825 131.964 46.1287 132.521 47.4662C133.301 46.1062 134.437 45.4825 136.042 45.4825C138.896 45.4825 139.899 47.5112 139.899 50.075V56.45H137.224V50.3875C137.224 49.05 136.822 47.8875 135.24 47.8875C133.569 47.8875 132.945 49.27 132.945 50.6512V56.4475H130.27V50.0725C130.27 48.7575 129.735 47.8875 128.441 47.8875C126.681 47.8875 125.99 49.18 125.99 50.6075V56.4475H123.315V45.75Z" fill="#405870"/>
<path d="M143.756 54.445C143.968 54.445 144.175 54.5077 144.351 54.6253C144.527 54.7429 144.664 54.91 144.745 55.1055C144.826 55.301 144.847 55.5162 144.806 55.7237C144.764 55.9313 144.662 56.1219 144.513 56.2716C144.363 56.4212 144.172 56.5231 143.965 56.5644C143.757 56.6057 143.542 56.5845 143.347 56.5035C143.151 56.4225 142.984 56.2854 142.866 56.1094C142.749 55.9335 142.686 55.7266 142.686 55.515C142.684 55.3739 142.711 55.234 142.764 55.1033C142.817 54.9727 142.896 54.854 142.995 54.7543C143.095 54.6545 143.214 54.5758 143.344 54.5227C143.475 54.4695 143.615 54.4431 143.756 54.445Z" fill="#405870"/>
<path d="M152.271 45.885C155.436 45.885 157.687 48.1588 157.687 51.3013C157.687 54.4438 155.437 56.7188 152.271 56.7188C149.105 56.7188 146.855 54.445 146.855 51.3013C146.855 48.1575 149.106 45.885 152.271 45.885ZM152.271 55.51C154.79 55.51 156.35 53.615 156.35 51.2963C156.35 48.9775 154.79 47.0838 152.271 47.0838C149.752 47.0838 148.192 48.9788 148.192 51.2963C148.192 53.6138 149.75 55.515 152.271 55.515V55.51Z" fill="#405870"/>
<path d="M160.118 49.05C160.118 48.2925 160.006 46.6875 160.006 46.1525H161.344C161.366 46.91 161.389 47.7575 161.434 47.9588C162.101 46.755 163.171 45.885 164.71 45.885C164.974 45.8895 165.236 45.9269 165.49 45.9963L165.334 47.3113C165.169 47.255 164.996 47.225 164.821 47.2225C162.503 47.2225 161.455 48.8275 161.455 50.8338V56.4513H160.118V49.05Z" fill="#405870"/>
<path d="M177.038 55.7825C177.038 60.9075 173.649 61.8013 171.554 61.8013C169.48 61.8013 167.496 60.9988 166.449 59.6388L167.496 58.6575C168.433 59.9725 169.949 60.5975 171.554 60.5975C175.633 60.5975 175.7 57.03 175.7 55.8713V54.445H175.655C174.875 55.6713 173.515 56.4513 171.754 56.4513C168.723 56.4513 166.254 54.0663 166.254 51.1675C166.254 48.2688 168.728 45.885 171.754 45.885C173.515 45.885 174.879 46.665 175.655 47.885H175.7V46.1525H177.038V55.7825ZM171.663 47.0888C170.856 47.0902 170.068 47.3308 169.398 47.7801C168.728 48.2294 168.206 48.8672 167.898 49.6129C167.591 50.3586 167.511 51.1788 167.67 51.9698C167.828 52.7608 168.217 53.487 168.788 54.0568C169.359 54.6266 170.086 55.0144 170.878 55.1711C171.669 55.3277 172.489 55.2463 173.234 54.9371C173.979 54.6279 174.616 54.1047 175.064 53.4338C175.512 52.7628 175.75 51.9742 175.75 51.1675C175.75 50.6314 175.644 50.1006 175.439 49.6054C175.233 49.1102 174.932 48.6603 174.553 48.2816C174.174 47.9028 173.723 47.6024 173.228 47.3978C172.732 47.1931 172.201 47.0881 171.665 47.0888H171.663Z" fill="#405870"/>
<path d="M42.9902 51.2213C43.3332 49.6816 43.9364 48.2117 44.7739 46.875C45.5792 45.591 46.5704 44.4334 47.7152 43.44C46.8392 44.2004 46.054 45.0594 45.3752 46C45.8552 45.3292 46.4036 44.7101 47.0114 44.1525C47.6256 43.5909 48.2958 43.0937 49.0114 42.6688C48.7584 42.9188 48.4918 43.1545 48.2127 43.375C47.9214 43.625 47.6727 43.875 47.6339 44.03C46.0905 45.4249 44.8275 47.1016 43.9127 48.97C42.9938 50.8468 42.4705 52.8925 42.3752 54.98C42.1958 54.2869 42.2157 53.5573 42.4327 52.875C42.6089 52.2825 42.8564 51.78 42.9902 51.2213Z" fill="#415870"/>
<path d="M53.2501 40.875C52.8538 41 52.4726 41.135 52.1001 41.2812C52.4701 41.1108 52.8551 40.9748 53.2501 40.875Z" fill="#415870"/>
<path d="M58.0938 68.06C58.5188 68.0137 58.9412 67.9487 59.3438 67.8837C58.9332 67.9798 58.5149 68.0388 58.0938 68.06Z" fill="#415870"/>
<path d="M43.6465 56.5887L43.8327 57.2825C44.1025 59.1012 44.7209 60.8507 45.654 62.435C45.1037 61.5494 44.6379 60.614 44.2627 59.6412C43.8874 58.6656 43.679 57.6336 43.6465 56.5887Z" fill="#415870"/>
<path d="M43.9375 54.645C43.9476 52.8733 44.4139 51.1341 45.2913 49.595C44.4563 51.1513 43.993 52.8797 43.9375 54.645Z" fill="#415870"/>
<path d="M66.9237 60.4625C66.8887 60.45 66.8787 60.4112 66.88 60.365C66.8946 60.325 66.9005 60.2824 66.8975 60.24C67.2273 59.7541 67.5198 59.2439 67.7725 58.7137C67.758 58.8604 67.733 59.0058 67.6975 59.1487C67.5785 59.3651 67.4418 59.5712 67.2887 59.765C67.136 59.9781 67.014 60.2117 66.9262 60.4587" fill="#415870"/>
<path d="M57.6248 68.0887L57.5798 68.1075C57.4335 68.1175 57.2885 68.1275 57.1448 68.1325L57.0923 68.12C57.2698 68.1075 57.446 68.0962 57.6248 68.0887Z" fill="#415870"/>
<path d="M66.5064 61.0838C66.4461 61.0492 66.377 61.0332 66.3076 61.0375C66.5139 60.7875 66.7101 60.52 66.8939 60.2488C66.8873 60.2873 66.8827 60.3261 66.8801 60.365C66.8139 60.58 66.5714 60.8325 66.5051 61.0838" fill="#415870"/>
<path d="M60.3848 64.9075C60.1923 64.9688 60.0536 65.1463 59.9673 65.205C59.4298 65.2413 58.8998 65.2438 58.2873 65.2388C58.1948 65.2838 57.9961 65.3 57.8086 65.3775C57.6936 65.325 57.5723 65.2825 57.4448 65.2388C58.8299 65.2536 60.2054 65.0081 61.4998 64.515C61.142 64.6792 60.7701 64.8105 60.3886 64.9075" fill="#415870"/>
<path d="M54.2074 42.9637C55.2286 42.6337 56.3961 42.5325 57.5324 42.5762C58.6686 42.62 59.7824 42.7862 60.8424 42.895C59.6899 42.4375 58.2111 42.18 56.9674 42.1137C55.7236 42.0475 54.7324 42.0962 54.4736 41.8462C54.2149 41.5962 55.1086 41.3462 56.3486 41.2987C57.0097 41.2804 57.6713 41.3134 58.3274 41.3975C58.9911 41.4775 59.6224 41.6025 60.1336 41.7C59.8749 41.5837 59.8749 41.5837 59.6124 41.475C59.8761 41.5837 60.1336 41.6962 60.3886 41.6825C60.0579 41.5349 59.719 41.4064 59.3736 41.2975C59.0061 41.1725 58.6611 41.0612 58.5099 40.9537C58.6836 40.9175 58.8574 40.8887 59.0336 40.86C58.3286 40.55 57.2449 40.36 56.1411 40.3287C55.0374 40.2975 53.9211 40.3962 53.1036 40.4087C55.137 40.1764 57.1937 40.248 59.2061 40.6212C61.3673 41.0312 63.4257 41.8657 65.2624 43.0762C67.1767 44.34 68.7746 46.0272 69.9324 48.0075C71.0837 49.9811 71.7411 52.2038 71.8486 54.4862C72.0188 56.9103 71.6524 59.342 70.7754 61.6083C69.8985 63.8745 68.5325 65.9195 66.7749 67.5975C66.248 68.0363 65.676 68.418 65.0686 68.7362C64.3245 69.1364 63.5454 69.4677 62.7411 69.7262C60.2211 70.7362 57.4199 71.0912 54.6649 70.8425C51.7349 70.4675 48.9886 69.1462 46.7899 67.1787C44.5911 65.2112 42.8936 62.5862 41.9524 59.6C41.7586 59.0062 41.7374 58.2475 41.8649 58.0237C41.9274 57.9112 42.0211 57.9287 42.1474 58.1487C42.2736 58.3687 42.4361 58.7987 42.6961 59.4887C43.5985 61.7584 44.9462 63.8245 46.6599 65.565C46.4949 65.5287 46.2261 65.2837 45.9574 64.9937C45.7168 64.7156 45.4614 64.4506 45.1924 64.2C45.6678 64.9169 46.2147 65.5836 46.8249 66.19C47.4305 66.7909 48.096 67.3283 48.8111 67.7937C47.8047 67.1385 46.8777 66.3687 46.0486 65.5C47.1284 66.6349 48.3701 67.6037 49.7336 68.375C51.1564 69.1789 52.7056 69.7352 54.3149 70.02C54.9011 70.1325 55.4336 70.3587 56.0549 70.51C56.7698 70.6989 57.5231 70.6859 58.2311 70.4725C56.0684 70.4762 53.9281 70.0346 51.9436 69.175C49.9677 68.3189 48.1741 67.0922 46.6599 65.5612C46.6682 65.5623 46.6766 65.5623 46.6849 65.5612C45.3823 64.2678 44.3342 62.7414 43.5949 61.0612C43.8449 61.575 44.1499 62.0762 44.3774 62.5275C43.1724 60.1275 42.5199 57.54 42.5424 54.9237C42.7018 56.7824 43.1584 58.6035 43.8949 60.3175C44.642 62.0615 45.701 63.6547 47.0199 65.0187C48.3431 66.389 49.922 67.4868 51.6674 68.25C53.3707 68.9918 55.2094 69.3723 57.0674 69.3675C56.0574 69.1912 54.8961 69.0712 53.7824 68.8C52.6686 68.5287 51.6211 68.1137 50.9361 67.5425C53.8956 69.0709 57.2852 69.5533 60.5536 68.9112L59.8424 69.125C60.9204 69.0396 61.9766 68.7747 62.9674 68.3412C63.9595 67.908 64.9079 67.381 65.7999 66.7675C65.9574 66.6637 66.1136 66.5587 66.2686 66.4475L65.7999 66.7675C64.2044 67.8123 62.4215 68.5377 60.5499 68.9037C61.3674 68.6537 62.2274 68.385 63.2336 67.9862C62.6499 68.1112 61.8499 68.3487 61.0324 68.505C59.9795 68.775 58.898 68.9181 57.8111 68.9312C59.4129 68.8721 60.9833 68.4697 62.4161 67.7512C60.3111 68.4325 58.0086 68.7187 55.8299 68.3762C57.0279 68.4974 58.2369 68.4554 59.4236 68.2512C61.4607 68.0124 63.415 67.3057 65.1336 66.1862L64.9424 66.3275C65.0749 66.2412 65.2024 66.1475 65.3299 66.0562C66.0047 65.5962 66.635 65.0739 67.2124 64.4962C67.7093 63.9654 68.13 63.368 68.4624 62.7212L68.6636 62.4237C68.5836 62.6437 68.5686 62.7725 68.8424 62.4237C69.4399 61.6363 69.9044 60.7563 70.2174 59.8187C70.5649 58.8537 70.8199 57.835 71.0924 56.77C71.2336 56.2087 71.2674 55.425 71.1974 54.5925C71.2347 54.4418 71.2189 54.2828 71.1524 54.1425C71.1324 53.9637 71.1074 53.7837 71.0799 53.605C71.0382 53.1671 70.9579 52.7337 70.8399 52.31C70.9261 52.73 71.0124 53.165 71.0799 53.605L71.1299 54.0975C71.0466 53.9553 70.9958 53.7965 70.9811 53.6325C71.1013 55.162 70.9614 56.7009 70.5674 58.1837C70.1651 59.6911 69.5223 61.1237 68.6636 62.4262C68.7261 62.2437 68.8286 61.995 68.8574 61.885C68.7386 62.17 68.6074 62.4475 68.4624 62.7237C67.8834 63.5575 67.2222 64.331 66.4886 65.0325C66.6789 64.8257 66.8446 64.5975 66.9824 64.3525C65.9612 65.3641 64.7936 66.2162 63.5186 66.88C62.2335 67.5466 60.853 68.0104 59.4261 68.255C56.7483 68.5661 54.0386 68.0698 51.6449 66.83C52.9157 67.6355 54.3429 68.1626 55.8324 68.3762C53.7657 68.1693 51.778 67.4735 50.0336 66.3462C48.2922 65.2264 46.858 63.6895 45.8611 61.875C46.4161 62.4037 47.1374 63.1075 47.6386 63.2575C47.7086 63.155 46.9924 62.1462 47.4949 62.6687C48.4436 63.5775 49.2749 64.3 50.0374 64.8025C50.7999 65.305 51.4924 65.5625 52.1074 65.4525C52.2324 65.4037 51.7724 64.9112 51.4524 64.4375C51.1324 63.9637 50.9261 63.535 51.2949 63.71C52.2057 64.238 53.1769 64.6543 54.1874 64.95C54.545 65.0882 54.9127 65.1985 55.2874 65.28C55.3336 65.305 55.4236 65.28 55.5374 65.2512C56.8999 65.4812 58.2111 65.3925 58.9349 65.3275C59.2049 65.3087 59.4724 65.2725 59.7386 65.2312C59.8706 65.2361 60.0009 65.2618 60.1249 65.3075C60.2786 65.2137 60.4336 65.1287 60.5886 65.0575C61.2868 64.8801 61.9633 64.6264 62.6061 64.3012C62.9888 64.1709 63.3621 64.0147 63.7236 63.8337C63.6886 63.7987 63.5986 63.7837 63.6349 63.7012C64.3804 63.204 65.0571 62.6105 65.6474 61.9362C65.9117 61.7093 66.1911 61.5005 66.4836 61.3112C66.5986 60.7837 66.9949 60.0887 67.3586 59.2825C67.7224 58.4762 68.0399 57.5725 68.1411 56.7937H68.1249C68.2689 56.0107 68.328 55.2144 68.3011 54.4187C68.3361 54.285 68.3761 54.155 68.4261 54.0312C68.3399 53.8375 68.3124 53.6287 68.2636 53.5312C68.2361 52.8862 68.2049 52.3312 68.1386 51.77C68.0749 51.6825 67.8886 51.5412 67.8161 51.3425C67.6942 50.9484 67.5391 50.5653 67.3524 50.1975C67.1611 49.7614 66.9445 49.3369 66.7036 48.9262C65.8811 47.5184 64.7783 46.2944 63.4636 45.33C63.4551 45.261 63.4668 45.1911 63.4974 45.1287C63.2349 45.0675 62.9574 44.83 62.7299 44.7687C62.7786 44.7687 62.8161 44.7575 62.8261 44.7225C62.565 44.6383 62.3155 44.5215 62.0836 44.375C61.8733 44.2247 61.6509 44.0921 61.4186 43.9787C61.2681 43.9481 61.1156 43.9281 60.9624 43.9187C60.8924 43.8887 60.8224 43.8637 60.7524 43.835C60.0899 43.3225 59.2761 43.26 58.4111 43.1812C57.5353 43.0322 56.6456 42.9818 55.7586 43.0312C55.0524 43.0837 54.7436 42.9575 54.2211 42.9625" fill="#415870"/>
<path d="M67.8599 58.5213C68.1797 57.8139 68.4256 57.0754 68.5936 56.3175C68.4811 57.14 68.3899 57.9163 67.8599 58.5213Z" fill="#415870"/>
<path d="M50.9677 63.2263C50.8049 62.9356 50.6216 62.657 50.4189 62.3925C51.7522 63.6658 53.4045 64.5555 55.2014 64.9675V64.9825C54.4652 64.8575 53.6114 64.5113 52.8677 64.13C52.1239 63.7488 51.4714 63.35 50.9677 63.2263Z" fill="#415870"/>
<path d="M66.8748 60.365C66.8774 60.3261 66.882 60.2873 66.8886 60.2488C66.891 60.2912 66.8851 60.3337 66.8711 60.3738" fill="#415870"/>
<path d="M46.3814 61.9925L46.2651 61.8013C46.591 62.2697 46.9428 62.7196 47.3189 63.1488C46.9671 62.7969 46.6529 62.4094 46.3814 61.9925Z" fill="#415870"/>
<path d="M44.5363 56.225C44.3921 55.0766 44.4043 53.9139 44.5725 52.7688C44.8456 51.3485 45.4174 50.0026 46.25 48.82C44.9548 51.0629 44.3581 53.6412 44.5363 56.225Z" fill="#415870"/>
<path d="M48.6951 60.4862C48.5411 60.1331 48.4116 59.7697 48.3076 59.3987C48.4624 59.7421 48.6373 60.076 48.8314 60.3987C48.7539 60.3637 48.7314 60.4487 48.6951 60.4812" fill="#415870"/>
<path d="M49.7287 65.3488L49.4512 65.1425C49.7112 65.29 49.9749 65.4288 50.2437 65.5538C50.1374 65.5213 49.9012 65.4163 49.7287 65.3488Z" fill="#415870"/>
<path d="M47.5488 56.6312C47.5788 56.9046 47.6205 57.1766 47.6738 57.4475C47.605 57.295 47.5325 57.1462 47.4463 56.9962C47.4977 56.8804 47.5306 56.7573 47.5438 56.6312" fill="#415870"/>
<path d="M47.6924 52.4075C47.7859 52.0553 47.9067 51.711 48.0536 51.3775C47.9154 51.793 47.8014 52.2162 47.7124 52.645C47.6886 52.5375 47.6674 52.45 47.6924 52.4075Z" fill="#415870"/>
<path d="M51.0061 35.125C52.1289 35.6139 53.1602 36.2902 54.0561 37.125C54.9146 37.9286 55.6489 38.8554 56.2349 39.875C55.7831 39.0978 55.2428 38.3755 54.6249 37.7225C55.0642 38.1875 55.4546 38.6964 55.7899 39.2413C56.1258 39.7918 56.4055 40.3748 56.6249 40.9813C56.4714 40.7517 56.3316 40.5134 56.2061 40.2675C56.0599 40.0175 55.9074 39.7838 55.7911 39.7313C54.9587 38.3491 53.8696 37.139 52.5824 36.1663C51.2897 35.1886 49.8099 34.487 48.2349 34.105C48.789 34.0702 49.3416 34.1933 49.8286 34.46C50.2549 34.6825 50.5999 34.9463 51.0061 35.13" fill="#189AB6"/>
<path d="M57.3751 44.4775C57.3388 44.1563 57.2926 43.8525 57.2363 43.5413C57.312 43.8483 57.3585 44.1617 57.3751 44.4775Z" fill="#189AB6"/>
<path d="M35.9476 44.1375C35.9201 44.4675 35.9063 44.7988 35.8963 45.1188C35.8823 44.7908 35.8995 44.4622 35.9476 44.1375Z" fill="#189AB6"/>
<path d="M46.821 34.835L46.266 34.8737C44.8409 34.8104 43.417 35.0226 42.0723 35.4987C42.8285 35.2105 43.6103 34.9946 44.4073 34.8537C45.2051 34.7118 46.0212 34.7059 46.821 34.8362" fill="#189AB6"/>
<path d="M48.2573 35.345C49.6057 35.6144 50.8617 36.2275 51.9036 37.125C50.8421 36.258 49.594 35.6491 48.2573 35.3462" fill="#189AB6"/>
<path d="M40.4251 51.985C40.4401 51.9613 40.4701 51.96 40.5051 51.9675C40.5329 51.9834 40.5635 51.994 40.5951 51.9988C40.9159 52.321 41.2602 52.6189 41.6251 52.89C41.5154 52.8555 41.4081 52.8137 41.3039 52.765C41.1568 52.6427 41.0205 52.508 40.8964 52.3625C40.756 52.2163 40.5962 52.0901 40.4214 51.9875" fill="#189AB6"/>
<path d="M36 43.7713L35.9912 43.735C36.0062 43.6225 36.0187 43.51 36.0375 43.4L36.0537 43.3613C36.0375 43.4988 36.02 43.635 36 43.7713Z" fill="#189AB6"/>
<path d="M40.0127 51.575C40.0489 51.5355 40.0721 51.4857 40.0789 51.4325C40.2414 51.6262 40.4114 51.8075 40.5914 51.995C40.5634 51.9837 40.5346 51.9745 40.5052 51.9675C40.3514 51.885 40.1952 51.6625 40.0127 51.575Z" fill="#189AB6"/>
<path d="M38.0075 46.3488C37.9738 46.2195 37.9185 46.0969 37.8438 45.9863C37.895 45.5725 37.9687 45.1675 38.0662 44.7025C38.0462 44.625 38.0662 44.4713 38.0312 44.3175C38.0889 44.237 38.1423 44.1535 38.1912 44.0675C37.9764 45.116 37.9599 46.1954 38.1425 47.25C38.0712 46.9529 38.026 46.65 38.0075 46.345" fill="#189AB6"/>
<path d="M55.6324 44.895C55.7155 45.7633 55.6487 46.6394 55.4349 47.485C55.2349 48.3488 54.9424 49.1688 54.7024 49.9588C55.2211 49.1475 55.6361 48.0588 55.8699 47.1275C56.1036 46.1963 56.2149 45.4275 56.4424 45.2675C56.6699 45.1075 56.7336 45.8263 56.5811 46.7775C56.498 47.2839 56.3752 47.7829 56.2136 48.27C56.0536 48.77 55.8661 49.2263 55.7136 49.6013C55.8386 49.4225 55.8386 49.4225 55.9636 49.2375C55.8339 49.4026 55.741 49.5935 55.6911 49.7975C55.8527 49.5675 56.0009 49.3283 56.1349 49.0813C56.2423 48.8659 56.3731 48.663 56.5249 48.4763C56.5249 48.6125 56.5249 48.75 56.5174 48.8888C56.8586 48.3975 57.1611 47.5988 57.3511 46.7638C57.5411 45.9288 57.6286 45.0638 57.7399 44.44C57.6158 46.0228 57.2564 47.5782 56.6736 49.055C56.0428 50.6413 55.1025 52.086 53.9074 53.305C52.661 54.5734 51.1398 55.5382 49.4611 56.125C47.7895 56.7084 46.0019 56.8799 44.2499 56.625C42.3785 56.3948 40.581 55.7546 38.9853 54.7502C37.3897 53.7457 36.0353 52.4016 35.0186 50.8138C34.7621 50.3474 34.556 49.855 34.4036 49.345C34.2093 48.7187 34.0725 48.0761 33.9949 47.425C33.6131 45.3224 33.7317 43.1595 34.3411 41.1113C35.0785 38.9363 36.4557 37.0349 38.2924 35.6563C40.1849 34.2356 42.4258 33.352 44.7786 33.0988C45.2611 33.04 45.8411 33.135 45.9924 33.2663C46.0699 33.33 46.0424 33.3988 45.8524 33.4625C45.4899 33.5589 45.1217 33.6319 44.7499 33.6813C42.8877 34.0336 41.1151 34.7562 39.5374 35.8063C39.5886 35.6813 39.8149 35.5175 40.0749 35.355C40.3224 35.2134 40.562 35.0582 40.7924 34.89C40.1762 35.1465 39.5874 35.4644 39.0349 35.8388C38.488 36.2114 37.9804 36.6386 37.5199 37.1138C38.1683 36.4425 38.8923 35.8485 39.6774 35.3438C38.6526 35.9959 37.7301 36.7962 36.9399 37.7188C36.1163 38.6846 35.4632 39.7836 35.0086 40.9688C34.8361 41.3975 34.5849 41.7688 34.3774 42.2188C34.1277 42.7356 34.026 43.3114 34.0836 43.8825C34.4004 42.236 35.0527 40.6723 35.9999 39.2888C36.945 37.9098 38.1463 36.7254 39.5386 35.8C39.535 35.8054 39.532 35.8113 39.5299 35.8175C40.7079 35.018 42.0251 34.446 43.4136 34.1313C42.9836 34.2563 42.5586 34.4038 42.1811 34.5063C44.1512 33.9353 46.2291 33.8423 48.2424 34.235C46.8034 34.0816 45.3491 34.1597 43.9349 34.4663C42.4959 34.7787 41.126 35.351 39.8924 36.155C38.6582 36.9617 37.5929 38.001 36.7561 39.215C35.9392 40.4028 35.377 41.7468 35.1049 43.1625C35.3899 42.4125 35.6524 41.5525 36.0249 40.745C36.3974 39.9375 36.8661 39.2013 37.3999 38.7638C35.7976 40.7926 34.9284 43.3035 34.9336 45.8888L34.8699 45.3138C34.7749 46.1487 34.8201 46.9937 35.0036 47.8138C35.1862 48.6335 35.447 49.4338 35.7824 50.2038C35.8386 50.34 35.8949 50.475 35.9574 50.6088L35.7824 50.2038C35.2234 48.8337 34.9352 47.3684 34.9336 45.8888C35.0086 46.5488 35.0811 47.2425 35.2349 48.0675C35.2349 47.605 35.1636 46.96 35.1661 46.3175C35.1157 45.476 35.1673 44.6316 35.3199 43.8025C35.1264 45.0312 35.1998 46.2872 35.5349 47.485C35.3274 45.78 35.4524 43.985 36.0349 42.375C35.7661 43.2679 35.6186 44.1928 35.5961 45.125C35.4761 46.7111 35.7247 48.3034 36.3224 49.7775L36.2499 49.61C36.2961 49.7225 36.3486 49.8338 36.3999 49.9463C36.6507 50.5281 36.9549 51.0855 37.3086 51.6113C37.6392 52.0672 38.0317 52.4749 38.4749 52.8225L38.6711 53.0188C38.5174 52.925 38.4211 52.8938 38.6474 53.1563C39.1579 53.7294 39.7593 54.2146 40.4274 54.5925C41.1099 55 41.8474 55.3425 42.6186 55.7075C43.1385 55.9244 43.6887 56.0602 44.2499 56.11C44.3592 56.1613 44.4832 56.1724 44.5999 56.1413C44.7386 56.1525 44.8799 56.16 45.0199 56.1663C45.3593 56.1998 45.7011 56.2027 46.0411 56.175C45.7086 56.175 45.3636 56.175 45.0199 56.1663L44.6374 56.1325C44.7573 56.0891 44.8855 56.0733 45.0124 56.0863C43.83 55.9519 42.679 55.6176 41.6086 55.0975C40.5198 54.5686 39.5239 53.8665 38.6599 53.0188C38.7849 53.095 38.9636 53.21 39.0436 53.2475C38.8449 53.115 38.6536 52.9713 38.4636 52.8225C37.9147 52.2584 37.4243 51.6403 36.9999 50.9775C37.1293 51.1529 37.2782 51.313 37.4436 51.455C36.8245 50.5274 36.3488 49.5119 36.0324 48.4425C35.7167 47.3658 35.5695 46.2467 35.5961 45.125C35.7556 43.039 36.5352 41.0483 37.8349 39.4088C37.0327 40.2567 36.4196 41.2651 36.0361 42.3675C36.4994 40.8235 37.3239 39.412 38.4411 38.25C39.5546 37.09 40.9403 36.2268 42.4724 35.7388C41.9874 36.0838 41.3474 36.5288 41.1561 36.8888C41.2236 36.9563 42.0974 36.5613 41.6261 36.8663C40.7924 37.4538 40.1199 37.9788 39.6261 38.4913C39.1324 39.0038 38.8311 39.4913 38.8249 39.9713C38.8424 40.0763 39.2861 39.7963 39.6999 39.6225C40.1136 39.4488 40.4649 39.355 40.2774 39.61C39.74 40.226 39.2783 40.9042 38.9024 41.63C38.7452 41.8819 38.6069 42.1451 38.4886 42.4175C38.4663 42.4792 38.4616 42.5458 38.4749 42.61C38.18 43.4418 37.991 44.3073 37.9124 45.1863C37.8874 45.395 37.8749 45.6025 37.8686 45.8113C37.8438 45.9106 37.8047 46.0058 37.7524 46.0938C37.8011 46.225 37.8424 46.355 37.8774 46.4838C37.9077 47.0392 37.9991 47.5896 38.1499 48.125C38.192 48.4361 38.2555 48.7439 38.3399 49.0463C38.3711 49.025 38.3961 48.9588 38.4524 48.9975C38.7215 49.6399 39.0737 50.2442 39.4999 50.795C39.6339 51.0298 39.7513 51.2737 39.8511 51.525C40.2361 51.69 40.7074 52.0963 41.2674 52.4875C41.8122 52.8912 42.4115 53.2157 43.0474 53.4513V53.4413C43.621 53.6655 44.2168 53.8281 44.8249 53.9263C44.9202 53.9703 45.0129 54.02 45.1024 54.075C45.2636 54.0375 45.4249 54.0475 45.5049 54.0238C46.0049 54.0988 46.4261 54.1575 46.8636 54.1888C46.9771 54.1067 47.104 54.0449 47.2386 54.0063C47.557 53.9714 47.8718 53.91 48.1799 53.8225C48.54 53.7415 48.8952 53.6396 49.2436 53.5175C50.4371 53.0992 51.5322 52.4407 52.4611 51.5825C52.5153 51.5863 52.5673 51.6054 52.6111 51.6375C52.6961 51.4463 52.9186 51.2713 52.9986 51.1063C52.9911 51.1438 52.9986 51.1738 53.0199 51.1863C53.1222 50.9996 53.2482 50.8269 53.3949 50.6725C53.5397 50.5343 53.6727 50.3842 53.7924 50.2238C53.8396 50.1146 53.8776 50.0017 53.9061 49.8863C53.9399 49.8375 53.9711 49.7875 54.0024 49.7388C54.4899 49.31 54.6586 48.7 54.8461 48.0525C55.0904 47.4072 55.2606 46.7362 55.3536 46.0525C55.4174 45.5075 55.5599 45.2913 55.6336 44.8925" fill="#189AB6"/>
<path d="M41.7637 52.9863C42.2551 53.3356 42.7812 53.6334 43.3337 53.875C42.7237 53.6675 42.1462 53.4838 41.7637 52.99" fill="#189AB6"/>
<path d="M40.6838 39.4263C40.9292 39.3465 41.1682 39.2483 41.3988 39.1325C40.2319 39.9591 39.3098 41.0854 38.73 42.3925H38.7188C38.9723 41.7979 39.309 41.2424 39.7188 40.7425C40.115 40.225 40.52 39.7938 40.6888 39.4288" fill="#189AB6"/>
<path d="M40.4998 51.9675C40.5291 51.9747 40.5579 51.9834 40.5861 51.9938C40.5544 51.989 40.5239 51.9784 40.4961 51.9625" fill="#189AB6"/>
<path d="M42.3012 36.1175L42.4649 36.0575C42.0601 36.2357 41.6657 36.4369 41.2837 36.66C41.603 36.4442 41.9441 36.2624 42.3012 36.1175Z" fill="#189AB6"/>
<path d="M46.9664 35.5662C47.8617 35.6269 48.7448 35.8085 49.5914 36.1062C50.632 36.5248 51.5719 37.1597 52.3489 37.9687C50.8326 36.6504 48.9578 35.8139 46.9639 35.5662" fill="#189AB6"/>
<path d="M43.1064 38.1012C43.3981 38.037 43.6938 37.9928 43.9914 37.9688C43.706 38.0355 43.4247 38.119 43.1489 38.2188C43.1877 38.165 43.1252 38.135 43.1064 38.1025" fill="#189AB6"/>
<path d="M39.2499 38.1687L39.4474 37.9875C39.2974 38.165 39.1524 38.3437 39.0161 38.53C39.0574 38.4537 39.1724 38.29 39.2499 38.1687Z" fill="#189AB6"/>
<path d="M46.211 37.8C45.9985 37.7825 45.7848 37.775 45.5723 37.7788C45.6973 37.7488 45.8223 37.715 45.9473 37.6713C46.0276 37.7266 46.1162 37.7688 46.2098 37.7963" fill="#189AB6"/>
<path d="M49.4064 38.535C49.6612 38.6582 49.9057 38.8016 50.1377 38.9637C49.8419 38.7964 49.5363 38.6469 49.2227 38.5162C49.3077 38.5162 49.3789 38.5162 49.4064 38.535Z" fill="#189AB6"/>
<path d="M162.748 59.795H77.5825V59.8725H162.748V59.795Z" fill="#415870"/>
<path d="M83.9326 64.3313C83.9326 64.5588 83.7901 64.595 83.3139 64.6013C82.9389 64.6088 82.5639 64.6163 82.0851 64.6375C81.6801 64.6513 81.1901 64.68 80.9351 64.7013C80.9351 64.73 80.9426 64.7438 80.9639 65.07C80.9508 65.5089 80.8888 65.9449 80.7789 66.37C80.6511 66.9395 80.575 67.5193 80.5514 68.1025C80.5376 68.515 80.5301 68.9125 80.5301 69.2275C80.5327 69.2692 80.5264 69.311 80.5116 69.3501C80.4968 69.3891 80.4738 69.4246 80.4443 69.4542C80.4147 69.4837 80.3793 69.5066 80.3402 69.5214C80.3011 69.5362 80.2593 69.5426 80.2176 69.54C80.0401 69.54 79.8551 69.4475 79.8551 69.2625C79.8551 69.0775 79.8839 68.6375 79.9189 68.3038C79.9592 67.7171 80.0306 67.1329 80.1326 66.5538C80.2314 65.9725 80.3239 65.4813 80.3314 65.2975C80.3206 65.0972 80.2849 64.899 80.2251 64.7075L79.8501 64.7288C79.2676 64.765 78.5226 64.8 78.0039 64.8C77.7764 64.8 77.5776 64.8 77.5776 64.53C77.5776 64.405 77.7626 64.3025 78.1039 64.28L79.8226 64.155L80.2051 64.0975C80.2365 64.0421 80.2819 63.996 80.3368 63.9638C80.3916 63.9315 80.454 63.9143 80.5176 63.9138C80.6649 63.9371 80.8001 64.0093 80.9014 64.1188C81.2764 64.1188 82.6914 64.07 83.4151 64.0125C83.6501 64.0125 83.8914 64.07 83.9276 64.2625L83.9326 64.3313Z" fill="#415870"/>
<path d="M86.0175 67.6913C85.9441 68.1138 85.9023 68.5412 85.8925 68.97C85.8951 69.0135 85.888 69.0571 85.8718 69.0975C85.8556 69.138 85.8307 69.1744 85.7988 69.2041C85.7669 69.2338 85.7289 69.2562 85.6874 69.2695C85.6459 69.2828 85.602 69.2868 85.5588 69.2813C85.4733 69.2746 85.3936 69.2358 85.3356 69.1728C85.2776 69.1097 85.2457 69.0269 85.2463 68.9413C85.3525 68.11 85.36 68.0963 85.36 68.0813C85.445 67.5275 85.5725 66.5125 85.5725 66.2213C85.576 66.1658 85.5688 66.1102 85.5513 66.0575C85.2888 66.1363 84.6638 66.6613 84.2238 67.535C84.0888 67.7975 83.9738 68.035 83.7975 68.38L83.625 68.7775C83.475 69.0825 83.3838 69.1613 83.1562 69.1613C83.0212 69.1613 82.9062 68.9975 82.9062 68.8063V68.77L83.1125 67.1088C83.155 66.7675 83.2375 66.0713 83.3187 65.4325L83.5 63.9913C83.5362 63.7 83.625 63.0963 83.9613 63.0963C84.1888 63.0963 84.2388 63.1888 84.2388 63.3163C84.2388 63.3725 84.225 63.4413 84.2175 63.515L84.1463 63.92C83.8625 65.8088 83.7775 66.545 83.7137 67.3075L83.7775 67.23L83.8625 67.0875C83.87 67.0663 83.8838 67.0588 83.8913 67.0375C84.051 66.7841 84.2312 66.5441 84.43 66.32L84.7212 66.015C85.0962 65.6463 85.4813 65.255 85.7513 65.255C86.1488 65.255 86.1637 65.7163 86.1637 66.0288V66.1538L86.0175 67.6913Z" fill="#415870"/>
<path d="M88.0564 69.2325C86.9839 69.2325 86.7502 68.21 86.7502 67.6838C86.7455 67.6557 86.743 67.6273 86.7427 67.5988C86.7427 67.5563 86.7502 67.4988 86.7564 67.4H86.5789C86.4089 67.4 86.1177 67.3713 86.1177 67.1225C86.1177 66.8738 86.2739 66.8463 86.4802 66.8463C86.6081 66.8412 86.7362 66.8433 86.8639 66.8525C87.0902 66.4625 87.7514 65.3975 88.4114 65.3975C88.9227 65.3975 89.9877 65.6675 89.9877 66.5613C89.9987 66.7076 89.9821 66.8548 89.9389 66.995C89.8889 67.12 89.7252 67.13 89.4977 67.13L88.7952 67.1725C88.3095 67.2068 87.826 67.266 87.3464 67.35C87.3396 67.416 87.3371 67.4824 87.3389 67.5488V67.7125C87.3389 67.7625 87.3677 68.735 88.1064 68.735C88.5602 68.735 89.3139 68.3725 89.8752 68.0888C90.0434 67.9933 90.2292 67.9329 90.4214 67.9113C90.4457 67.908 90.4703 67.9096 90.4939 67.9162C90.5175 67.9227 90.5395 67.934 90.5585 67.9493C90.5776 67.9646 90.5933 67.9837 90.6048 68.0053C90.6163 68.0269 90.6232 68.0506 90.6252 68.075C90.6252 68.2 90.4477 68.3013 90.2914 68.3725C90.2279 68.4088 90.1614 68.4398 90.0927 68.465C89.4277 68.8275 88.6389 69.2325 88.0564 69.2325ZM89.3352 66.2138C89.1043 66.0279 88.8211 65.9187 88.5252 65.9013C88.2627 65.9013 87.7652 66.4413 87.5252 66.8038C87.6239 66.7963 87.8014 66.7675 87.8939 66.7613L88.9602 66.6688C89.1056 66.6658 89.2504 66.6491 89.3927 66.6188C89.4096 66.5559 89.4192 66.4913 89.4214 66.4263C89.4204 66.3471 89.3896 66.2713 89.3352 66.2138Z" fill="#415870"/>
<path d="M97.3163 64.4025L97.1813 64.815C97.0813 65.2975 96.975 66.1362 96.8963 66.6325L96.875 66.7575C96.8263 67.1325 96.8263 67.85 96.7975 68.2575C96.7975 68.2725 96.8188 68.2862 96.8263 68.9687V69.0112C96.8263 69.1675 96.84 69.3512 96.4638 69.3512C96.3 69.3512 96.2288 69.2875 96.2075 68.805C96.1878 68.1701 96.202 67.5346 96.25 66.9012C95.9375 66.93 94.8588 67.0362 94.3263 67.1287C94.305 67.2212 94.29 67.2987 94.2013 68.1875C94.1738 68.4212 94.1588 68.6412 94.1313 68.8262C94.0888 69.0962 94.0238 69.28 93.7975 69.28C93.5713 69.28 93.47 69.1037 93.47 68.8762C93.4771 68.7642 93.4913 68.6527 93.5125 68.5425L93.5338 68.4C93.5838 68.0737 93.6475 67.6262 93.69 67.1787C93.5125 67.185 93.2863 67.2 93.0225 67.2C92.6825 67.2 92.54 67.1637 92.54 66.965C92.54 66.695 92.7463 66.6737 92.995 66.6525L93.8038 66.575C93.8393 66.442 93.8657 66.3066 93.8825 66.17C93.925 65.8362 94.1163 64.75 94.1325 64.465C94.1538 64.1312 94.225 63.8187 94.6225 63.8187C94.8288 63.84 94.8575 63.9687 94.8575 64.11C94.8575 64.38 94.7325 64.7137 94.6725 65.0687L94.4813 66.0912C94.445 66.2837 94.4388 66.3125 94.41 66.5037C94.865 66.475 95.16 66.4475 95.8875 66.3687L96.32 66.3475C96.335 66.2912 96.3625 66.0975 96.4263 65.7012C96.5125 65.1537 96.6113 64.3875 96.7038 64.21C96.8175 64.0462 96.9163 63.9112 97.0875 63.9112C97.1237 63.9118 97.1593 63.9198 97.1922 63.9345C97.2252 63.9492 97.2549 63.9705 97.2794 63.997C97.3039 64.0235 97.3228 64.0548 97.335 64.0888C97.3471 64.1228 97.3522 64.1589 97.35 64.195L97.3163 64.4025Z" fill="#415870"/>
<path d="M100.689 66.0362C100.604 66.0362 100.384 66.0287 100.228 66.0287H100.125C100.118 66.0287 99.8839 66.015 99.6639 66.015H99.5564C99.8374 66.3206 99.9857 66.7252 99.9689 67.14C99.9689 67.665 99.5564 69.085 98.4414 69.085C97.6252 69.085 97.4614 68.335 97.4614 67.7712C97.4614 67.2537 97.7889 65.9112 99.0664 65.4637C99.0943 65.4572 99.1229 65.4547 99.1514 65.4562C99.2568 65.4594 99.3615 65.4736 99.4639 65.4987C99.4897 65.506 99.516 65.511 99.5427 65.5137C99.5427 65.5137 100.324 65.52 100.629 65.52H100.828C101.048 65.52 101.203 65.655 101.203 65.79C101.154 65.9962 100.94 66.04 100.813 66.04L100.689 66.0362ZM98.8139 66.2062C98.4739 66.4412 98.0902 67.1162 98.0902 67.8475V67.9612C98.0902 68.3012 98.3402 68.5925 98.4802 68.5925C98.9564 68.5925 99.4114 67.7262 99.4114 67.2787C99.4092 67.0643 99.3534 66.8538 99.249 66.6665C99.1447 66.4792 98.9951 66.321 98.8139 66.2062Z" fill="#415870"/>
<path d="M104.305 68.7138V68.6138C104.305 68.1138 104.376 67.8325 104.447 67.1725L104.546 66.285C104.55 66.2434 104.55 66.2016 104.546 66.16C104.361 66.2525 103.786 66.8763 103.466 67.3313C103.154 67.8638 102.92 68.4325 102.876 68.78C102.841 68.95 102.635 69.03 102.451 69.03C102.187 69.03 102.181 68.795 102.181 68.6813C102.181 68.525 102.237 68.3475 102.465 67.2263C102.496 67.1028 102.52 66.9775 102.536 66.8513C102.582 66.6292 102.606 66.4031 102.607 66.1763C102.607 66.155 102.607 66.1488 102.6 66.1488C102.521 66.1488 102.287 66.4113 102.152 66.5813C101.896 66.869 101.679 67.1892 101.506 67.5338L101.165 68.4088C101.165 68.445 101.144 68.4513 101.066 68.7213C101.052 68.8071 101.008 68.8852 100.941 68.9413C100.875 68.9975 100.791 69.028 100.704 69.0275C100.42 69.0275 100.42 68.85 100.42 68.7213V68.665C100.505 68.1463 100.505 68.14 100.505 68.14C100.557 67.9386 100.599 67.7345 100.63 67.5288C100.68 67.2513 100.687 67.2375 100.687 67.2163C100.751 66.69 100.829 66.5338 100.865 65.9738V65.9375C100.865 65.7175 100.865 65.4188 101.24 65.4188C101.452 65.4188 101.524 65.6175 101.552 65.81C101.528 66.1375 101.478 66.4626 101.404 66.7825C101.779 66.2713 102.447 65.4763 102.874 65.4763C103.022 65.4763 103.249 65.5263 103.249 65.8875C103.248 66.2255 103.219 66.5629 103.164 66.8963C103.368 66.6297 103.588 66.3759 103.824 66.1363C104.165 65.8313 104.669 65.4688 104.91 65.4688C104.957 65.471 105.002 65.4825 105.045 65.5027C105.087 65.5228 105.125 65.5512 105.156 65.5861C105.187 65.621 105.211 65.6618 105.226 65.7061C105.241 65.7503 105.247 65.7971 105.244 65.8438C105.201 66.3338 105.174 66.5938 105.145 66.745V66.795C105.109 66.83 105.102 67.0225 105.087 67.25L105.045 67.59C104.99 67.905 104.954 68.2231 104.939 68.5425V68.585C104.939 68.67 104.96 68.7975 104.96 68.8825C104.96 69.06 104.896 69.2025 104.597 69.2025C104.341 69.2038 104.305 68.9338 104.305 68.7138Z" fill="#415870"/>
<path d="M107.25 69.2325C106.178 69.2325 105.944 68.21 105.944 67.6838C105.939 67.6557 105.937 67.6273 105.936 67.5988C105.936 67.5563 105.944 67.4988 105.95 67.4H105.775C105.605 67.4 105.314 67.3713 105.314 67.1225C105.314 66.8738 105.47 66.8463 105.676 66.8463C105.804 66.8412 105.932 66.8433 106.059 66.8525C106.286 66.4625 106.948 65.3975 107.608 65.3975C108.119 65.3975 109.184 65.6675 109.184 66.5613C109.195 66.7076 109.178 66.8548 109.135 66.995C109.085 67.12 108.921 67.13 108.694 67.13L107.991 67.1725C107.506 67.2068 107.022 67.266 106.543 67.35C106.536 67.416 106.533 67.4824 106.535 67.5488V67.7125C106.535 67.7625 106.564 68.735 107.303 68.735C107.756 68.735 108.51 68.3725 109.07 68.0888C109.239 67.9934 109.425 67.9331 109.618 67.9113C109.642 67.9087 109.666 67.9109 109.689 67.9178C109.712 67.9246 109.733 67.936 109.752 67.9513C109.77 67.9666 109.785 67.9854 109.797 68.0066C109.808 68.0279 109.814 68.0511 109.816 68.075C109.816 68.2 109.639 68.3013 109.483 68.3725C109.419 68.4084 109.353 68.4394 109.284 68.465C108.625 68.8275 107.835 69.2325 107.25 69.2325ZM108.529 66.2138C108.298 66.0279 108.015 65.9187 107.719 65.9013C107.456 65.9013 106.959 66.4413 106.719 66.8038C106.818 66.7963 106.995 66.7675 107.094 66.7613L108.159 66.6688C108.305 66.6659 108.45 66.6491 108.593 66.6188C108.609 66.5558 108.619 66.4913 108.621 66.4263C108.619 66.3466 108.587 66.2707 108.531 66.2138H108.529Z" fill="#415870"/>
<path d="M118.821 62.7712C117.841 62.7712 116.641 63.4025 116.456 64.2412L116.206 65.4125C115.994 65.4487 114.311 65.5375 113.999 65.4962C113.896 65.4731 113.792 65.4589 113.686 65.4537C113.657 65.4522 113.628 65.4547 113.6 65.4612C112.323 65.9087 111.995 67.2512 111.995 67.7687C111.995 68.33 112.159 69.0825 112.976 69.0825C114.09 69.0825 114.503 67.6625 114.503 67.1375C114.519 66.7227 114.371 66.3181 114.09 66.0125H114.198C114.298 66.0125 115.76 66.0425 116.185 65.9925L116.094 66.845C115.994 67.74 115.809 68.7625 115.66 69.5575L115.631 69.7137C115.539 70.2137 115.448 70.2962 115.448 70.5375C115.448 70.715 115.518 70.8212 115.689 70.8212C116.008 70.8212 115.994 70.6862 116.036 70.5712C116.044 70.5575 116.073 70.3362 116.073 70.3212L116.363 69.0637L116.625 67.3662C116.76 66.3287 116.766 66.0875 116.766 65.9912V65.9487C117.16 65.9236 117.552 65.8739 117.939 65.8L118.591 65.715C118.966 65.6725 119.131 65.59 119.131 65.3875C119.131 65.225 118.904 65.1675 118.898 65.1675L117.81 65.2925C117.576 65.3412 117.221 65.3562 117.001 65.3775L116.876 65.3912C116.937 65.0428 117.02 64.6987 117.126 64.3612C117.368 63.7087 117.965 63.3462 118.838 63.3462C119.173 63.3653 119.502 63.4423 119.811 63.5737C119.895 63.6273 119.989 63.6635 120.088 63.68C120.151 63.6797 120.213 63.6541 120.258 63.609C120.303 63.5638 120.329 63.5026 120.329 63.4387C120.326 63.055 119.531 62.7712 118.821 62.7712ZM113.013 68.5925C112.87 68.5925 112.621 68.3012 112.621 67.9612V67.8475C112.621 67.1162 113.005 66.4412 113.346 66.2062C113.527 66.3212 113.677 66.4795 113.781 66.6668C113.885 66.8541 113.94 67.0645 113.943 67.2787C113.943 67.7262 113.488 68.5925 113.013 68.5925Z" fill="#415870"/>
<path d="M124.524 64.5C124.247 64.5 123.565 64.7337 122.919 65.0612C122.159 65.445 121.484 65.97 121.435 66.1688C121.406 66.2825 121.825 66.3038 122.776 66.375C122.901 66.3825 124.467 66.4812 124.481 67.2912C124.489 67.8025 123.721 68.4837 123.061 68.96C122.614 69.2437 121.839 69.635 121.285 69.635C121.015 69.635 120.519 69.5275 120.519 69.1937C120.524 69.1235 120.557 69.0581 120.61 69.0115C120.663 68.9649 120.732 68.9406 120.802 68.9437C120.944 69.0392 121.114 69.0833 121.285 69.0687C121.796 69.0337 122.209 68.87 122.706 68.5687C123.31 68.2062 123.885 67.6937 123.877 67.3887C123.885 67.3537 123.8 67.1625 123.502 67.0625C123.24 66.9903 122.971 66.9451 122.7 66.9275L121.599 66.835C121.124 66.7712 120.74 66.63 120.74 66.2388C120.74 65.6713 122.011 64.96 122.665 64.6338L122.79 64.57C123.266 64.3425 124.146 63.9375 124.572 63.9375C124.765 63.9375 124.97 63.9663 124.97 64.1875C124.964 64.5 124.759 64.5 124.524 64.5Z" fill="#415870"/>
<path d="M127.375 68.7062C126.864 68.9625 126.26 69.2462 125.6 69.2462C124.975 69.2462 124.647 68.785 124.647 68.1812C124.652 67.7128 124.769 67.2524 124.989 66.8387C125.239 66.37 126.069 65.5887 126.715 65.5887C126.965 65.5887 127.496 65.7875 127.496 66.0575C127.483 66.1377 127.441 66.2104 127.378 66.2624C127.315 66.3145 127.236 66.3424 127.155 66.3412C127.113 66.3389 127.072 66.3275 127.036 66.3079C126.999 66.2882 126.966 66.2608 126.941 66.2275C126.916 66.1995 126.885 66.177 126.851 66.1613C126.817 66.1456 126.78 66.1371 126.742 66.1362C126.289 66.1362 125.961 66.5337 125.627 66.895H125.635C125.383 67.2628 125.249 67.6989 125.251 68.145C125.251 68.3287 125.301 68.7262 125.664 68.7262C126.274 68.7262 126.672 68.5425 127.164 68.2787C127.959 67.8312 128.065 67.7887 128.086 67.7887C128.15 67.7951 128.21 67.8235 128.256 67.869C128.302 67.9146 128.33 67.9746 128.336 68.0387C128.336 68.1737 128.08 68.3162 127.836 68.4575L127.711 68.5287L127.375 68.7062Z" fill="#415870"/>
<path d="M128.484 68.8837C128.484 68.8987 128.476 68.9125 128.476 68.9262C128.441 69.0825 128.384 69.3387 128.058 69.3387C127.816 69.3387 127.808 69.2037 127.808 69.0337C127.807 68.9644 127.814 68.8953 127.829 68.8275C127.964 68.1887 128.234 66.6325 128.269 65.93C128.276 65.7587 128.269 65.475 128.56 65.475C128.803 65.475 128.901 65.6 128.901 65.85C128.896 66.1666 128.868 66.4825 128.816 66.795C129.129 66.4471 129.487 66.1435 129.881 65.8925C130.29 65.6369 130.74 65.4522 131.21 65.3462C131.565 65.2962 131.785 65.4712 131.785 65.58C131.785 65.815 131.544 65.8362 131.309 65.8575L131.145 65.8712C130.739 66.0158 130.353 66.2147 130 66.4625C128.804 67.2787 128.675 68.3012 128.484 68.8837Z" fill="#415870"/>
<path d="M133.719 68.92C133.723 68.6748 133.747 68.4303 133.79 68.1888L133.967 67.1888C133.875 67.3138 133.776 67.445 133.634 67.6575C133.35 68.0746 133.032 68.4668 132.682 68.83L132.625 68.88C132.455 69.0288 132.227 69.2275 131.936 69.2275C131.709 69.2275 131.525 69.135 131.525 68.8163C131.525 68.78 131.546 68.1488 131.554 68.105L131.631 67.4375C131.631 67.41 131.756 66.7638 131.837 66.4375C131.837 66.4225 131.837 66.4163 131.837 66.4013C131.916 66.0613 132.065 65.4288 132.435 65.4288C132.475 65.4305 132.514 65.4406 132.55 65.4583C132.586 65.476 132.618 65.5009 132.644 65.5315C132.67 65.5622 132.69 65.5978 132.701 65.6363C132.713 65.6748 132.716 65.7152 132.711 65.755C132.69 66.0675 132.42 66.6575 132.329 67.1613C132.24 67.6158 132.176 68.0748 132.136 68.5363C132.136 68.5575 132.144 68.5638 132.144 68.5638C132.269 68.5638 132.917 67.6888 133.429 67.0438L134.289 65.7238C134.329 65.6821 134.378 65.6494 134.432 65.6278C134.485 65.6063 134.543 65.5964 134.601 65.5988C134.642 65.5962 134.683 65.602 134.721 65.6159C134.76 65.6297 134.795 65.6513 134.825 65.6793C134.855 65.7073 134.879 65.7411 134.895 65.7786C134.911 65.8161 134.92 65.8566 134.92 65.8975V65.94C134.842 66.2663 134.764 66.5438 134.7 66.7425C134.595 67.0258 134.519 67.3189 134.472 67.6175C134.466 67.6963 134.459 67.76 134.451 67.8313C134.374 68.605 134.359 68.7975 134.359 68.8825V68.925C134.366 69.01 134.38 69.1025 134.38 69.1375C134.38 69.2625 134.331 69.3575 134.09 69.3575C133.805 69.36 133.719 69.2325 133.719 68.92Z" fill="#415870"/>
<path d="M138.969 68.7138V68.6138C138.969 68.1138 139.04 67.8325 139.111 67.1725L139.21 66.285C139.214 66.2434 139.214 66.2016 139.21 66.16C139.025 66.2525 138.45 66.8763 138.13 67.3313C137.818 67.8638 137.583 68.4325 137.54 68.78C137.505 68.95 137.299 69.03 137.114 69.03C136.851 69.03 136.845 68.795 136.845 68.6813C136.845 68.525 136.901 68.3475 137.129 67.2263C137.16 67.1028 137.184 66.9775 137.2 66.8513C137.246 66.6291 137.269 66.403 137.27 66.1763C137.27 66.155 137.27 66.1488 137.264 66.1488C137.185 66.1488 136.951 66.4113 136.816 66.5813C136.56 66.869 136.343 67.1892 136.17 67.5338L135.829 68.4088C135.829 68.445 135.808 68.4513 135.73 68.7213C135.716 68.8071 135.672 68.8852 135.606 68.9413C135.539 68.9975 135.455 69.028 135.368 69.0275C135.084 69.0275 135.084 68.85 135.084 68.7213V68.665C135.169 68.1463 135.169 68.14 135.169 68.14C135.221 67.9386 135.263 67.7345 135.294 67.5288C135.344 67.2513 135.35 67.2375 135.35 67.2163C135.415 66.69 135.493 66.5338 135.528 65.9738V65.9375C135.528 65.7175 135.528 65.4188 135.903 65.4188C136.115 65.4188 136.186 65.6175 136.215 65.81C136.19 66.1375 136.141 66.4626 136.066 66.7825C136.441 66.2713 137.11 65.4763 137.536 65.4763C137.685 65.4763 137.911 65.5263 137.911 65.8875C137.911 66.2255 137.882 66.5629 137.826 66.8963C138.03 66.6294 138.251 66.3756 138.486 66.1363C138.828 65.8313 139.331 65.4688 139.573 65.4688C139.619 65.471 139.665 65.4825 139.707 65.5027C139.75 65.5228 139.787 65.5512 139.818 65.5861C139.85 65.621 139.873 65.6618 139.888 65.7061C139.904 65.7503 139.91 65.7971 139.906 65.8438C139.864 66.3338 139.835 66.5938 139.808 66.745V66.795C139.771 66.83 139.765 67.0225 139.75 67.25L139.708 67.59C139.652 67.9049 139.616 68.2231 139.601 68.5425V68.585C139.601 68.67 139.623 68.7975 139.623 68.8825C139.623 69.06 139.559 69.2025 139.26 69.2025C139 69.2038 138.969 68.9338 138.969 68.7138Z" fill="#415870"/>
<path d="M178.531 44.4687H177.897V43.9562H179.741V44.4687H179.107V46.1525H178.531V44.4687ZM180.211 43.9562H180.984L181.506 45.385L182.027 43.9562H182.801V46.1525H182.225V44.725H182.215L181.692 46.1525H181.317L180.795 44.725H180.785V46.1525H180.21L180.211 43.9562Z" fill="#405870"/>
</svg>
