<svg width="36" height="36" viewBox="0 0 36 36" fill="none" xmlns="http://www.w3.org/2000/svg">
<g clip-path="url(#clip0_131_190)">
<rect width="36" height="36" rx="3" fill="#04D4AC"/>
<path d="M35.9775 17.9326C35.9775 27.8702 27.9152 35.9326 17.9888 35.9326C8.05115 35.9326 0 27.8702 0 17.9326C0 7.995 8.05115 -0.0673828 17.9888 -0.0673828C27.9152 -0.0673828 35.9775 7.995 35.9775 17.9326ZM19.3699 25.7929C17.7642 25.4785 16.8097 24.5465 14.373 20.9307C13.5646 19.718 13.5646 19.718 12.7785 19.6619C11.622 19.5833 11.7118 19.3812 11.7455 21.9301C11.7904 24.8272 11.7567 24.7598 13.4298 25.0405C13.8677 25.1079 13.9014 25.1416 13.9014 25.3999C13.9014 25.6918 13.9014 25.6918 10.9594 25.7143C8.19713 25.7367 8.01747 25.7255 7.96132 25.5571C7.84903 25.2314 8.01747 25.0742 8.62383 24.9619C9.30879 24.8384 9.66812 24.5577 9.75795 24.0861C9.80287 23.9064 9.8141 21.481 9.79164 18.6962C9.75795 12.8459 9.82533 13.194 8.74735 12.9582C8.07361 12.8122 7.86026 12.655 7.95009 12.3855C8.01747 12.2059 8.16344 12.1946 11.2289 12.1385C15.7879 12.0486 16.6413 12.1946 17.854 13.2726C19.1229 14.4067 19.3026 16.136 18.292 17.5845C17.8428 18.2358 16.9445 18.932 16.2483 19.1903C15.9226 19.3138 15.6531 19.4485 15.6531 19.4934C15.6531 19.6282 16.6862 21.0992 17.3263 21.8852C19.0331 23.9626 19.9538 24.771 20.9083 25.0181C21.5034 25.1753 21.6719 25.3437 21.5034 25.6357C21.3238 25.9389 20.4254 26.0062 19.3699 25.7929ZM15.0692 18.3481C17.315 17.4273 17.4835 14.3394 15.35 13.4298C14.7997 13.194 14.6538 13.1828 13.2726 13.1828C11.7792 13.1828 11.7792 13.1828 11.7567 15.7767C11.7342 17.2027 11.7455 18.4379 11.7792 18.5053C11.8802 18.7411 14.4067 18.6176 15.0692 18.3481ZM22.8958 15.1478C21.1553 14.8222 20.5827 13.7555 20.6725 11.0156C20.7174 9.49968 20.8409 9.08421 21.4248 8.45539C22.4579 7.34372 25.0181 7.44478 25.9613 8.63505C26.3656 9.14035 26.3319 9.29756 25.7704 9.46599C25.3325 9.61197 25.3325 9.61197 24.9283 9.20773C23.9738 8.28695 22.3231 8.62382 22.0312 9.81409C21.8852 10.3418 21.8964 12.5764 22.0424 13.0817C22.4354 14.5078 24.8047 14.5078 25.209 13.0817C25.456 12.1722 25.3999 12.1048 24.3107 12.0486C23.7829 12.0262 23.7829 12.0262 23.7829 11.5883C23.7829 11.1616 23.7829 11.1616 25.0405 11.1279C26.6687 11.0942 26.6463 11.0717 26.5677 12.262C26.4666 13.7554 26.0624 14.4741 25.0855 14.9008C24.4454 15.1703 23.5696 15.2714 22.8958 15.1478Z" fill="#04D4AC"/>
<path d="M19.3698 25.793C17.7641 25.4786 16.8096 24.5466 14.373 20.9309C13.5645 19.7182 13.5645 19.7182 12.7785 19.662C11.6219 19.5834 11.7117 19.3813 11.7454 21.9303C11.7903 24.8274 11.7566 24.76 13.4297 25.0407C13.8677 25.1081 13.9013 25.1418 13.9013 25.4C13.9013 25.692 13.9013 25.692 10.9594 25.7144C8.19704 25.7369 8.01738 25.7257 7.96124 25.5572C7.84895 25.2316 8.01738 25.0744 8.62374 24.9621C9.30871 24.8386 9.66803 24.5579 9.75787 24.0862C9.80278 23.9066 9.81401 21.4811 9.79155 18.6964C9.75787 12.8461 9.82524 13.1942 8.74726 12.9584C8.07352 12.8124 7.86017 12.6552 7.95001 12.3857C8.01738 12.206 8.16336 12.1948 11.2289 12.1386C15.7878 12.0488 16.6412 12.1948 17.8539 13.2728C19.1228 14.4069 19.3025 16.1362 18.2919 17.5847C17.8427 18.236 16.9444 18.9322 16.2482 19.1904C15.9226 19.3139 15.6531 19.4487 15.6531 19.4936C15.6531 19.6284 16.6861 21.0993 17.3262 21.8854C19.033 23.9627 19.9537 24.7712 20.9082 25.0182C21.5033 25.1755 21.6718 25.3439 21.5033 25.6358C21.3237 25.939 20.4254 26.0064 19.3698 25.793ZM15.0692 18.3483C17.3149 17.4275 17.4834 14.3395 15.3499 13.43C14.7997 13.1942 14.6537 13.1829 13.2725 13.1829C11.7791 13.1829 11.7791 13.1829 11.7566 15.7768C11.7342 17.2029 11.7454 18.4381 11.7791 18.5055C11.8801 18.7413 14.4066 18.6178 15.0692 18.3483ZM22.8957 15.148C21.1552 14.8224 20.5826 13.7556 20.6724 11.0158C20.7173 9.49985 20.8408 9.08438 21.4247 8.45555C22.4578 7.34389 25.018 7.44495 25.9612 8.63522C26.3655 9.14052 26.3318 9.29773 25.7703 9.46616C25.3324 9.61214 25.3324 9.61214 24.9282 9.20789C23.9737 8.28712 22.3231 8.62399 22.0311 9.81426C21.8851 10.342 21.8964 12.5766 22.0423 13.0819C22.4353 14.508 24.8047 14.508 25.2089 13.0819C25.4559 12.1723 25.3998 12.105 24.3106 12.0488C23.7828 12.0264 23.7828 12.0264 23.7828 11.5884C23.7828 11.1617 23.7828 11.1617 25.0405 11.128C26.6687 11.0944 26.6462 11.0719 26.5676 12.2622C26.4665 13.7556 26.0623 14.4743 25.0854 14.901C24.4453 15.1705 23.5695 15.2715 22.8957 15.148Z" fill="white"/>
</g>
<defs>
<clipPath id="clip0_131_190">
<rect width="36" height="36" fill="white"/>
</clipPath>
</defs>
</svg>
