<svg width="36" height="36" viewBox="0 0 36 36" fill="none" xmlns="http://www.w3.org/2000/svg">
<g clip-path="url(#clip0_131_196)">
<rect x="3" y="3" width="30" height="30" fill="white"/>
<path d="M30.6734 30.6742H25.3394V22.3207C25.3394 20.3287 25.3038 17.7644 22.5651 17.7644C19.787 17.7644 19.3619 19.9348 19.3619 22.1757V30.6736H14.0279V13.4954H19.1485V15.843H19.2202C19.7327 14.9668 20.4732 14.246 21.3629 13.7573C22.2526 13.2686 23.2582 13.0305 24.2726 13.0681C29.6789 13.0681 30.6757 16.6242 30.6757 21.2505L30.6734 30.6742ZM8.00919 11.1474C6.29962 11.1477 4.91347 9.762 4.91319 8.05242C4.91291 6.34284 6.29849 4.9567 8.00807 4.95642C9.71765 4.956 11.1038 6.34171 11.1041 8.05129C11.1042 8.87227 10.7782 9.65968 10.1978 10.2403C9.61744 10.8209 8.83017 11.1472 8.00919 11.1474ZM10.6763 30.6743H5.33662V13.4954H10.6761V30.6742L10.6763 30.6743ZM33.3327 0.00262011H2.6563C1.20646 -0.0136924 0.0174746 1.14773 -0.000244141 2.59757V33.4019C0.0169121 34.8524 1.20576 36.015 2.65616 35.9998H33.3327C34.7862 36.0178 35.9796 34.8553 35.9998 33.4019V2.59518C35.9791 1.14253 34.7855 -0.0187549 33.3327 0.000229485" fill="#0A66C2"/>
</g>
<defs>
<clipPath id="clip0_131_196">
<rect width="36" height="36" fill="white"/>
</clipPath>
</defs>
</svg>
